<?xml version="1.0"?>
<!-- Generated by SVGo and Plotinum VG -->
<svg width="4in" height="4in"
	xmlns="http://www.w3.org/2000/svg"
	xmlns:xlink="http://www.w3.org/1999/xlink">
<g transform="scale(1, -1) translate(0, -360)">
<path d="M0,0L360,0L360,360L0,360Z" style="fill:#FFFFFF" />
<text x="77.933" y="-344.21" transform="scale(1, -1)"
	style="font-family:Times;font-weight:normal;font-style:normal;font-size:12pt">Dijkstra.AllPaths, Directed Graph</text>
<text x="119.12" y="-329.21" transform="scale(1, -1)"
	style="font-family:Times;font-weight:normal;font-style:normal;font-size:12pt">Arc Size MA = 10N</text>
<text x="167.6" y="-5.355" transform="scale(1, -1)"
	style="font-family:Times;font-weight:normal;font-style:normal;font-size:12pt">Graph Order, N</text>
<text x="105.2" y="-19.025" transform="scale(1, -1)"
	style="font-family:Times;font-weight:normal;font-style:normal;font-size:10pt">100</text>
<text x="154.49" y="-19.025" transform="scale(1, -1)"
	style="font-family:Times;font-weight:normal;font-style:normal;font-size:10pt">1000</text>
<text x="203.73" y="-19.025" transform="scale(1, -1)"
	style="font-family:Times;font-weight:normal;font-style:normal;font-size:10pt">1e+04</text>
<text x="256.15" y="-19.025" transform="scale(1, -1)"
	style="font-family:Times;font-weight:normal;font-style:normal;font-size:10pt">1e+05</text>
<text x="308.56" y="-19.025" transform="scale(1, -1)"
	style="font-family:Times;font-weight:normal;font-style:normal;font-size:10pt">1e+06</text>
<path d="M77.942,34.625L77.942,39.625" style="fill:none;stroke:#000000;stroke-width:0.625" />
<path d="M87.172,34.625L87.172,39.625" style="fill:none;stroke:#000000;stroke-width:0.625" />
<path d="M93.721,34.625L93.721,39.625" style="fill:none;stroke:#000000;stroke-width:0.625" />
<path d="M98.8,34.625L98.8,39.625" style="fill:none;stroke:#000000;stroke-width:0.625" />
<path d="M102.95,34.625L102.95,39.625" style="fill:none;stroke:#000000;stroke-width:0.625" />
<path d="M106.46,34.625L106.46,39.625" style="fill:none;stroke:#000000;stroke-width:0.625" />
<path d="M109.5,34.625L109.5,39.625" style="fill:none;stroke:#000000;stroke-width:0.625" />
<path d="M112.18,34.625L112.18,39.625" style="fill:none;stroke:#000000;stroke-width:0.625" />
<path d="M114.58,29.625L114.58,39.625" style="fill:none;stroke:#000000;stroke-width:0.625" />
<path d="M130.36,34.625L130.36,39.625" style="fill:none;stroke:#000000;stroke-width:0.625" />
<path d="M139.59,34.625L139.59,39.625" style="fill:none;stroke:#000000;stroke-width:0.625" />
<path d="M146.14,34.625L146.14,39.625" style="fill:none;stroke:#000000;stroke-width:0.625" />
<path d="M151.21,34.625L151.21,39.625" style="fill:none;stroke:#000000;stroke-width:0.625" />
<path d="M155.37,34.625L155.37,39.625" style="fill:none;stroke:#000000;stroke-width:0.625" />
<path d="M158.87,34.625L158.87,39.625" style="fill:none;stroke:#000000;stroke-width:0.625" />
<path d="M161.91,34.625L161.91,39.625" style="fill:none;stroke:#000000;stroke-width:0.625" />
<path d="M164.6,34.625L164.6,39.625" style="fill:none;stroke:#000000;stroke-width:0.625" />
<path d="M166.99,29.625L166.99,39.625" style="fill:none;stroke:#000000;stroke-width:0.625" />
<path d="M182.77,34.625L182.77,39.625" style="fill:none;stroke:#000000;stroke-width:0.625" />
<path d="M192,34.625L192,39.625" style="fill:none;stroke:#000000;stroke-width:0.625" />
<path d="M198.55,34.625L198.55,39.625" style="fill:none;stroke:#000000;stroke-width:0.625" />
<path d="M203.63,34.625L203.63,39.625" style="fill:none;stroke:#000000;stroke-width:0.625" />
<path d="M207.78,34.625L207.78,39.625" style="fill:none;stroke:#000000;stroke-width:0.625" />
<path d="M211.29,34.625L211.29,39.625" style="fill:none;stroke:#000000;stroke-width:0.625" />
<path d="M214.33,34.625L214.33,39.625" style="fill:none;stroke:#000000;stroke-width:0.625" />
<path d="M217.01,34.625L217.01,39.625" style="fill:none;stroke:#000000;stroke-width:0.625" />
<path d="M219.41,29.625L219.41,39.625" style="fill:none;stroke:#000000;stroke-width:0.625" />
<path d="M235.19,34.625L235.19,39.625" style="fill:none;stroke:#000000;stroke-width:0.625" />
<path d="M244.42,34.625L244.42,39.625" style="fill:none;stroke:#000000;stroke-width:0.625" />
<path d="M250.97,34.625L250.97,39.625" style="fill:none;stroke:#000000;stroke-width:0.625" />
<path d="M256.04,34.625L256.04,39.625" style="fill:none;stroke:#000000;stroke-width:0.625" />
<path d="M260.2,34.625L260.2,39.625" style="fill:none;stroke:#000000;stroke-width:0.625" />
<path d="M263.7,34.625L263.7,39.625" style="fill:none;stroke:#000000;stroke-width:0.625" />
<path d="M266.74,34.625L266.74,39.625" style="fill:none;stroke:#000000;stroke-width:0.625" />
<path d="M269.42,34.625L269.42,39.625" style="fill:none;stroke:#000000;stroke-width:0.625" />
<path d="M271.82,29.625L271.82,39.625" style="fill:none;stroke:#000000;stroke-width:0.625" />
<path d="M287.6,34.625L287.6,39.625" style="fill:none;stroke:#000000;stroke-width:0.625" />
<path d="M296.83,34.625L296.83,39.625" style="fill:none;stroke:#000000;stroke-width:0.625" />
<path d="M303.38,34.625L303.38,39.625" style="fill:none;stroke:#000000;stroke-width:0.625" />
<path d="M308.46,34.625L308.46,39.625" style="fill:none;stroke:#000000;stroke-width:0.625" />
<path d="M312.61,34.625L312.61,39.625" style="fill:none;stroke:#000000;stroke-width:0.625" />
<path d="M316.12,34.625L316.12,39.625" style="fill:none;stroke:#000000;stroke-width:0.625" />
<path d="M319.16,34.625L319.16,39.625" style="fill:none;stroke:#000000;stroke-width:0.625" />
<path d="M321.84,34.625L321.84,39.625" style="fill:none;stroke:#000000;stroke-width:0.625" />
<path d="M324.24,29.625L324.24,39.625" style="fill:none;stroke:#000000;stroke-width:0.625" />
<path d="M340.02,34.625L340.02,39.625" style="fill:none;stroke:#000000;stroke-width:0.625" />
<path d="M349.25,34.625L349.25,39.625" style="fill:none;stroke:#000000;stroke-width:0.625" />
<path d="M355.8,34.625L355.8,39.625" style="fill:none;stroke:#000000;stroke-width:0.625" />
<path d="M72.863,39.625L356.88,39.625" style="fill:none;stroke:#000000;stroke-width:0.625" />
<g transform="rotate(90)">
<text x="171.65" y="12.72" transform="scale(1, -1)"
	style="font-family:Times;font-weight:normal;font-style:normal;font-size:12pt">µsec</text>
</g>
<text x="36.925" y="-52.762" transform="scale(1, -1)"
	style="font-family:Times;font-weight:normal;font-style:normal;font-size:10pt">10</text>
<text x="30.675" y="-96.177" transform="scale(1, -1)"
	style="font-family:Times;font-weight:normal;font-style:normal;font-size:10pt">100</text>
<text x="24.425" y="-139.59" transform="scale(1, -1)"
	style="font-family:Times;font-weight:normal;font-style:normal;font-size:10pt">1000</text>
<text x="18.075" y="-183.01" transform="scale(1, -1)"
	style="font-family:Times;font-weight:normal;font-style:normal;font-size:10pt">1e+04</text>
<text x="18.075" y="-226.42" transform="scale(1, -1)"
	style="font-family:Times;font-weight:normal;font-style:normal;font-size:10pt">1e+05</text>
<text x="18.075" y="-269.84" transform="scale(1, -1)"
	style="font-family:Times;font-weight:normal;font-style:normal;font-size:10pt">1e+06</text>
<text x="18.075" y="-313.25" transform="scale(1, -1)"
	style="font-family:Times;font-weight:normal;font-style:normal;font-size:10pt">1e+07</text>
<path d="M57.55,47.956L62.55,47.956" style="fill:none;stroke:#000000;stroke-width:0.625" />
<path d="M57.55,50.862L62.55,50.862" style="fill:none;stroke:#000000;stroke-width:0.625" />
<path d="M57.55,53.38L62.55,53.38" style="fill:none;stroke:#000000;stroke-width:0.625" />
<path d="M57.55,55.601L62.55,55.601" style="fill:none;stroke:#000000;stroke-width:0.625" />
<path d="M52.55,57.587L62.55,57.587" style="fill:none;stroke:#000000;stroke-width:0.625" />
<path d="M57.55,70.656L62.55,70.656" style="fill:none;stroke:#000000;stroke-width:0.625" />
<path d="M57.55,78.301L62.55,78.301" style="fill:none;stroke:#000000;stroke-width:0.625" />
<path d="M57.55,83.725L62.55,83.725" style="fill:none;stroke:#000000;stroke-width:0.625" />
<path d="M57.55,87.933L62.55,87.933" style="fill:none;stroke:#000000;stroke-width:0.625" />
<path d="M57.55,91.37L62.55,91.37" style="fill:none;stroke:#000000;stroke-width:0.625" />
<path d="M57.55,94.277L62.55,94.277" style="fill:none;stroke:#000000;stroke-width:0.625" />
<path d="M57.55,96.795L62.55,96.795" style="fill:none;stroke:#000000;stroke-width:0.625" />
<path d="M57.55,99.015L62.55,99.015" style="fill:none;stroke:#000000;stroke-width:0.625" />
<path d="M52.55,101L62.55,101" style="fill:none;stroke:#000000;stroke-width:0.625" />
<path d="M57.55,114.07L62.55,114.07" style="fill:none;stroke:#000000;stroke-width:0.625" />
<path d="M57.55,121.72L62.55,121.72" style="fill:none;stroke:#000000;stroke-width:0.625" />
<path d="M57.55,127.14L62.55,127.14" style="fill:none;stroke:#000000;stroke-width:0.625" />
<path d="M57.55,131.35L62.55,131.35" style="fill:none;stroke:#000000;stroke-width:0.625" />
<path d="M57.55,134.79L62.55,134.79" style="fill:none;stroke:#000000;stroke-width:0.625" />
<path d="M57.55,137.69L62.55,137.69" style="fill:none;stroke:#000000;stroke-width:0.625" />
<path d="M57.55,140.21L62.55,140.21" style="fill:none;stroke:#000000;stroke-width:0.625" />
<path d="M57.55,142.43L62.55,142.43" style="fill:none;stroke:#000000;stroke-width:0.625" />
<path d="M52.55,144.42L62.55,144.42" style="fill:none;stroke:#000000;stroke-width:0.625" />
<path d="M57.55,157.49L62.55,157.49" style="fill:none;stroke:#000000;stroke-width:0.625" />
<path d="M57.55,165.13L62.55,165.13" style="fill:none;stroke:#000000;stroke-width:0.625" />
<path d="M57.55,170.55L62.55,170.55" style="fill:none;stroke:#000000;stroke-width:0.625" />
<path d="M57.55,174.76L62.55,174.76" style="fill:none;stroke:#000000;stroke-width:0.625" />
<path d="M57.55,178.2L62.55,178.2" style="fill:none;stroke:#000000;stroke-width:0.625" />
<path d="M57.55,181.11L62.55,181.11" style="fill:none;stroke:#000000;stroke-width:0.625" />
<path d="M57.55,183.62L62.55,183.62" style="fill:none;stroke:#000000;stroke-width:0.625" />
<path d="M57.55,185.84L62.55,185.84" style="fill:none;stroke:#000000;stroke-width:0.625" />
<path d="M52.55,187.83L62.55,187.83" style="fill:none;stroke:#000000;stroke-width:0.625" />
<path d="M57.55,200.9L62.55,200.9" style="fill:none;stroke:#000000;stroke-width:0.625" />
<path d="M57.55,208.55L62.55,208.55" style="fill:none;stroke:#000000;stroke-width:0.625" />
<path d="M57.55,213.97L62.55,213.97" style="fill:none;stroke:#000000;stroke-width:0.625" />
<path d="M57.55,218.18L62.55,218.18" style="fill:none;stroke:#000000;stroke-width:0.625" />
<path d="M57.55,221.61L62.55,221.61" style="fill:none;stroke:#000000;stroke-width:0.625" />
<path d="M57.55,224.52L62.55,224.52" style="fill:none;stroke:#000000;stroke-width:0.625" />
<path d="M57.55,227.04L62.55,227.04" style="fill:none;stroke:#000000;stroke-width:0.625" />
<path d="M57.55,229.26L62.55,229.26" style="fill:none;stroke:#000000;stroke-width:0.625" />
<path d="M52.55,231.25L62.55,231.25" style="fill:none;stroke:#000000;stroke-width:0.625" />
<path d="M57.55,244.31L62.55,244.31" style="fill:none;stroke:#000000;stroke-width:0.625" />
<path d="M57.55,251.96L62.55,251.96" style="fill:none;stroke:#000000;stroke-width:0.625" />
<path d="M57.55,257.38L62.55,257.38" style="fill:none;stroke:#000000;stroke-width:0.625" />
<path d="M57.55,261.59L62.55,261.59" style="fill:none;stroke:#000000;stroke-width:0.625" />
<path d="M57.55,265.03L62.55,265.03" style="fill:none;stroke:#000000;stroke-width:0.625" />
<path d="M57.55,267.94L62.55,267.94" style="fill:none;stroke:#000000;stroke-width:0.625" />
<path d="M57.55,270.45L62.55,270.45" style="fill:none;stroke:#000000;stroke-width:0.625" />
<path d="M57.55,272.67L62.55,272.67" style="fill:none;stroke:#000000;stroke-width:0.625" />
<path d="M52.55,274.66L62.55,274.66" style="fill:none;stroke:#000000;stroke-width:0.625" />
<path d="M57.55,287.73L62.55,287.73" style="fill:none;stroke:#000000;stroke-width:0.625" />
<path d="M57.55,295.37L62.55,295.37" style="fill:none;stroke:#000000;stroke-width:0.625" />
<path d="M57.55,300.8L62.55,300.8" style="fill:none;stroke:#000000;stroke-width:0.625" />
<path d="M57.55,305.01L62.55,305.01" style="fill:none;stroke:#000000;stroke-width:0.625" />
<path d="M57.55,308.44L62.55,308.44" style="fill:none;stroke:#000000;stroke-width:0.625" />
<path d="M57.55,311.35L62.55,311.35" style="fill:none;stroke:#000000;stroke-width:0.625" />
<path d="M57.55,313.87L62.55,313.87" style="fill:none;stroke:#000000;stroke-width:0.625" />
<path d="M57.55,316.09L62.55,316.09" style="fill:none;stroke:#000000;stroke-width:0.625" />
<path d="M52.55,318.07L62.55,318.07" style="fill:none;stroke:#000000;stroke-width:0.625" />
<path d="M62.55,46.812L62.55,319.38" style="fill:none;stroke:#000000;stroke-width:0.625" />
<path d="M72.863,47.03L268.29,235.04L284.06,249.69L293.29,258.23L299.84,264.28L304.92,268.97L309.07,272.79L312.58,276.02L315.62,278.82L318.3,281.29L320.7,283.49L322.87,285.48L324.85,287.3L326.67,288.97L328.36,290.52L329.93,291.96L331.4,293.31L332.78,294.57L334.08,295.77L335.31,296.89L336.48,297.96L337.59,298.98L338.65,299.95L339.66,300.88L340.63,301.76L341.56,302.61L342.45,303.43L343.31,304.21L344.14,304.97L344.94,305.7L345.71,306.41L346.45,307.09L347.18,307.75L347.88,308.39L348.56,309.01L349.22,309.61L349.86,310.2L350.48,310.77L351.09,311.32L351.68,311.86L352.26,312.39L352.82,312.9L353.37,313.4L353.9,313.89L354.42,314.37L354.94,314.84L355.44,315.29L355.93,315.74L356.41,316.18L356.88,316.6" style="fill:none;stroke:#00007F;stroke-width:1.25" />
<path d="M72.863,46.812L72.863,48.397" style="fill:none;stroke:#F15A60;stroke-width:1.25" />
<path d="M69.738,46.812L75.988,46.812" style="fill:none;stroke:#F15A60;stroke-width:1.25" />
<path d="M69.738,48.397L75.988,48.397" style="fill:none;stroke:#F15A60;stroke-width:1.25" />
<path d="M88.641,62.426L88.641,63.954" style="fill:none;stroke:#F15A60;stroke-width:1.25" />
<path d="M85.516,62.426L91.766,62.426" style="fill:none;stroke:#F15A60;stroke-width:1.25" />
<path d="M85.516,63.954L91.766,63.954" style="fill:none;stroke:#F15A60;stroke-width:1.25" />
<path d="M104.42,68.349L104.42,77.298" style="fill:none;stroke:#F15A60;stroke-width:1.25" />
<path d="M101.29,68.349L107.54,68.349" style="fill:none;stroke:#F15A60;stroke-width:1.25" />
<path d="M101.29,77.298L107.54,77.298" style="fill:none;stroke:#F15A60;stroke-width:1.25" />
<path d="M120.2,88.509L120.2,93.789" style="fill:none;stroke:#F15A60;stroke-width:1.25" />
<path d="M117.07,88.509L123.32,88.509" style="fill:none;stroke:#F15A60;stroke-width:1.25" />
<path d="M117.07,93.789L123.32,93.789" style="fill:none;stroke:#F15A60;stroke-width:1.25" />
<path d="M135.98,109.13L135.98,109.92" style="fill:none;stroke:#F15A60;stroke-width:1.25" />
<path d="M132.85,109.13L139.1,109.13" style="fill:none;stroke:#F15A60;stroke-width:1.25" />
<path d="M132.85,109.92L139.1,109.92" style="fill:none;stroke:#F15A60;stroke-width:1.25" />
<path d="M151.75,122.12L151.75,124.81" style="fill:none;stroke:#F15A60;stroke-width:1.25" />
<path d="M148.63,122.12L154.88,122.12" style="fill:none;stroke:#F15A60;stroke-width:1.25" />
<path d="M148.63,124.81L154.88,124.81" style="fill:none;stroke:#F15A60;stroke-width:1.25" />
<path d="M167.53,132.79L167.53,136.79" style="fill:none;stroke:#F15A60;stroke-width:1.25" />
<path d="M164.41,132.79L170.66,132.79" style="fill:none;stroke:#F15A60;stroke-width:1.25" />
<path d="M164.41,136.79L170.66,136.79" style="fill:none;stroke:#F15A60;stroke-width:1.25" />
<path d="M183.31,146.83L183.31,149.45" style="fill:none;stroke:#F15A60;stroke-width:1.25" />
<path d="M180.19,146.83L186.44,146.83" style="fill:none;stroke:#F15A60;stroke-width:1.25" />
<path d="M180.19,149.45L186.44,149.45" style="fill:none;stroke:#F15A60;stroke-width:1.25" />
<path d="M199.09,165.91L199.09,170.64" style="fill:none;stroke:#F15A60;stroke-width:1.25" />
<path d="M195.97,165.91L202.22,165.91" style="fill:none;stroke:#F15A60;stroke-width:1.25" />
<path d="M195.97,170.64L202.22,170.64" style="fill:none;stroke:#F15A60;stroke-width:1.25" />
<path d="M214.87,180.3L214.87,186.96" style="fill:none;stroke:#F15A60;stroke-width:1.25" />
<path d="M211.74,180.3L217.99,180.3" style="fill:none;stroke:#F15A60;stroke-width:1.25" />
<path d="M211.74,186.96L217.99,186.96" style="fill:none;stroke:#F15A60;stroke-width:1.25" />
<path d="M230.65,194.02L230.65,196.14" style="fill:none;stroke:#F15A60;stroke-width:1.25" />
<path d="M227.52,194.02L233.77,194.02" style="fill:none;stroke:#F15A60;stroke-width:1.25" />
<path d="M227.52,196.14L233.77,196.14" style="fill:none;stroke:#F15A60;stroke-width:1.25" />
<path d="M246.43,210.86L246.43,212.3" style="fill:none;stroke:#F15A60;stroke-width:1.25" />
<path d="M243.3,210.86L249.55,210.86" style="fill:none;stroke:#F15A60;stroke-width:1.25" />
<path d="M243.3,212.3L249.55,212.3" style="fill:none;stroke:#F15A60;stroke-width:1.25" />
<path d="M262.2,226.07L262.2,227.47" style="fill:none;stroke:#F15A60;stroke-width:1.25" />
<path d="M259.08,226.07L265.33,226.07" style="fill:none;stroke:#F15A60;stroke-width:1.25" />
<path d="M259.08,227.47L265.33,227.47" style="fill:none;stroke:#F15A60;stroke-width:1.25" />
<path d="M277.98,241.11L277.98,244.99" style="fill:none;stroke:#F15A60;stroke-width:1.25" />
<path d="M274.86,241.11L281.11,241.11" style="fill:none;stroke:#F15A60;stroke-width:1.25" />
<path d="M274.86,244.99L281.11,244.99" style="fill:none;stroke:#F15A60;stroke-width:1.25" />
<path d="M293.76,257.54L293.76,258.86" style="fill:none;stroke:#F15A60;stroke-width:1.25" />
<path d="M290.64,257.54L296.89,257.54" style="fill:none;stroke:#F15A60;stroke-width:1.25" />
<path d="M290.64,258.86L296.89,258.86" style="fill:none;stroke:#F15A60;stroke-width:1.25" />
<path d="M309.54,272.04L309.54,274.94" style="fill:none;stroke:#F15A60;stroke-width:1.25" />
<path d="M306.41,272.04L312.66,272.04" style="fill:none;stroke:#F15A60;stroke-width:1.25" />
<path d="M306.41,274.94L312.66,274.94" style="fill:none;stroke:#F15A60;stroke-width:1.25" />
<path d="M325.32,287.52L325.32,287.8" style="fill:none;stroke:#F15A60;stroke-width:1.25" />
<path d="M322.19,287.52L328.44,287.52" style="fill:none;stroke:#F15A60;stroke-width:1.25" />
<path d="M322.19,287.8L328.44,287.8" style="fill:none;stroke:#F15A60;stroke-width:1.25" />
<path d="M341.1,302.56L341.1,304.75" style="fill:none;stroke:#F15A60;stroke-width:1.25" />
<path d="M337.97,302.56L344.22,302.56" style="fill:none;stroke:#F15A60;stroke-width:1.25" />
<path d="M337.97,304.75L344.22,304.75" style="fill:none;stroke:#F15A60;stroke-width:1.25" />
<path d="M356.88,317.92L356.88,319.38" style="fill:none;stroke:#F15A60;stroke-width:1.25" />
<path d="M353.75,317.92L360,317.92" style="fill:none;stroke:#F15A60;stroke-width:1.25" />
<path d="M353.75,319.38L360,319.38" style="fill:none;stroke:#F15A60;stroke-width:1.25" />
</g>
</svg>
