<?xml version="1.0"?>
<!-- Generated by SVGo and Plotinum VG -->
<svg width="4in" height="4in"
	xmlns="http://www.w3.org/2000/svg"
	xmlns:xlink="http://www.w3.org/1999/xlink">
<g transform="scale(1, -1) translate(0, -360)">
<path d="M0,0L360,0L360,360L0,360Z" style="fill:#FFFFFF" />
<text x="77.933" y="-344.21" transform="scale(1, -1)"
	style="font-family:Times;font-weight:normal;font-style:normal;font-size:12pt">Dijkstra.AllPaths, Directed Graph</text>
<text x="119.12" y="-329.21" transform="scale(1, -1)"
	style="font-family:Times;font-weight:normal;font-style:normal;font-size:12pt">Arc Size MA = 10N</text>
<text x="167.6" y="-5.355" transform="scale(1, -1)"
	style="font-family:Times;font-weight:normal;font-style:normal;font-size:12pt">Graph Order, N</text>
<text x="105.2" y="-19.025" transform="scale(1, -1)"
	style="font-family:Times;font-weight:normal;font-style:normal;font-size:10pt">100</text>
<text x="154.49" y="-19.025" transform="scale(1, -1)"
	style="font-family:Times;font-weight:normal;font-style:normal;font-size:10pt">1000</text>
<text x="203.73" y="-19.025" transform="scale(1, -1)"
	style="font-family:Times;font-weight:normal;font-style:normal;font-size:10pt">1e+04</text>
<text x="256.15" y="-19.025" transform="scale(1, -1)"
	style="font-family:Times;font-weight:normal;font-style:normal;font-size:10pt">1e+05</text>
<text x="308.56" y="-19.025" transform="scale(1, -1)"
	style="font-family:Times;font-weight:normal;font-style:normal;font-size:10pt">1e+06</text>
<path d="M77.942,34.625L77.942,39.625" style="fill:none;stroke:#000000;stroke-width:0.625" />
<path d="M87.172,34.625L87.172,39.625" style="fill:none;stroke:#000000;stroke-width:0.625" />
<path d="M93.721,34.625L93.721,39.625" style="fill:none;stroke:#000000;stroke-width:0.625" />
<path d="M98.8,34.625L98.8,39.625" style="fill:none;stroke:#000000;stroke-width:0.625" />
<path d="M102.95,34.625L102.95,39.625" style="fill:none;stroke:#000000;stroke-width:0.625" />
<path d="M106.46,34.625L106.46,39.625" style="fill:none;stroke:#000000;stroke-width:0.625" />
<path d="M109.5,34.625L109.5,39.625" style="fill:none;stroke:#000000;stroke-width:0.625" />
<path d="M112.18,34.625L112.18,39.625" style="fill:none;stroke:#000000;stroke-width:0.625" />
<path d="M114.58,29.625L114.58,39.625" style="fill:none;stroke:#000000;stroke-width:0.625" />
<path d="M130.36,34.625L130.36,39.625" style="fill:none;stroke:#000000;stroke-width:0.625" />
<path d="M139.59,34.625L139.59,39.625" style="fill:none;stroke:#000000;stroke-width:0.625" />
<path d="M146.14,34.625L146.14,39.625" style="fill:none;stroke:#000000;stroke-width:0.625" />
<path d="M151.21,34.625L151.21,39.625" style="fill:none;stroke:#000000;stroke-width:0.625" />
<path d="M155.37,34.625L155.37,39.625" style="fill:none;stroke:#000000;stroke-width:0.625" />
<path d="M158.87,34.625L158.87,39.625" style="fill:none;stroke:#000000;stroke-width:0.625" />
<path d="M161.91,34.625L161.91,39.625" style="fill:none;stroke:#000000;stroke-width:0.625" />
<path d="M164.6,34.625L164.6,39.625" style="fill:none;stroke:#000000;stroke-width:0.625" />
<path d="M166.99,29.625L166.99,39.625" style="fill:none;stroke:#000000;stroke-width:0.625" />
<path d="M182.77,34.625L182.77,39.625" style="fill:none;stroke:#000000;stroke-width:0.625" />
<path d="M192,34.625L192,39.625" style="fill:none;stroke:#000000;stroke-width:0.625" />
<path d="M198.55,34.625L198.55,39.625" style="fill:none;stroke:#000000;stroke-width:0.625" />
<path d="M203.63,34.625L203.63,39.625" style="fill:none;stroke:#000000;stroke-width:0.625" />
<path d="M207.78,34.625L207.78,39.625" style="fill:none;stroke:#000000;stroke-width:0.625" />
<path d="M211.29,34.625L211.29,39.625" style="fill:none;stroke:#000000;stroke-width:0.625" />
<path d="M214.33,34.625L214.33,39.625" style="fill:none;stroke:#000000;stroke-width:0.625" />
<path d="M217.01,34.625L217.01,39.625" style="fill:none;stroke:#000000;stroke-width:0.625" />
<path d="M219.41,29.625L219.41,39.625" style="fill:none;stroke:#000000;stroke-width:0.625" />
<path d="M235.19,34.625L235.19,39.625" style="fill:none;stroke:#000000;stroke-width:0.625" />
<path d="M244.42,34.625L244.42,39.625" style="fill:none;stroke:#000000;stroke-width:0.625" />
<path d="M250.97,34.625L250.97,39.625" style="fill:none;stroke:#000000;stroke-width:0.625" />
<path d="M256.04,34.625L256.04,39.625" style="fill:none;stroke:#000000;stroke-width:0.625" />
<path d="M260.2,34.625L260.2,39.625" style="fill:none;stroke:#000000;stroke-width:0.625" />
<path d="M263.7,34.625L263.7,39.625" style="fill:none;stroke:#000000;stroke-width:0.625" />
<path d="M266.74,34.625L266.74,39.625" style="fill:none;stroke:#000000;stroke-width:0.625" />
<path d="M269.42,34.625L269.42,39.625" style="fill:none;stroke:#000000;stroke-width:0.625" />
<path d="M271.82,29.625L271.82,39.625" style="fill:none;stroke:#000000;stroke-width:0.625" />
<path d="M287.6,34.625L287.6,39.625" style="fill:none;stroke:#000000;stroke-width:0.625" />
<path d="M296.83,34.625L296.83,39.625" style="fill:none;stroke:#000000;stroke-width:0.625" />
<path d="M303.38,34.625L303.38,39.625" style="fill:none;stroke:#000000;stroke-width:0.625" />
<path d="M308.46,34.625L308.46,39.625" style="fill:none;stroke:#000000;stroke-width:0.625" />
<path d="M312.61,34.625L312.61,39.625" style="fill:none;stroke:#000000;stroke-width:0.625" />
<path d="M316.12,34.625L316.12,39.625" style="fill:none;stroke:#000000;stroke-width:0.625" />
<path d="M319.16,34.625L319.16,39.625" style="fill:none;stroke:#000000;stroke-width:0.625" />
<path d="M321.84,34.625L321.84,39.625" style="fill:none;stroke:#000000;stroke-width:0.625" />
<path d="M324.24,29.625L324.24,39.625" style="fill:none;stroke:#000000;stroke-width:0.625" />
<path d="M340.02,34.625L340.02,39.625" style="fill:none;stroke:#000000;stroke-width:0.625" />
<path d="M349.25,34.625L349.25,39.625" style="fill:none;stroke:#000000;stroke-width:0.625" />
<path d="M355.8,34.625L355.8,39.625" style="fill:none;stroke:#000000;stroke-width:0.625" />
<path d="M72.863,39.625L356.88,39.625" style="fill:none;stroke:#000000;stroke-width:0.625" />
<g transform="rotate(90)">
<text x="171.55" y="12.72" transform="scale(1, -1)"
	style="font-family:Times;font-weight:normal;font-style:normal;font-size:12pt">µsec</text>
</g>
<text x="36.925" y="-51.696" transform="scale(1, -1)"
	style="font-family:Times;font-weight:normal;font-style:normal;font-size:10pt">10</text>
<text x="30.675" y="-95.289" transform="scale(1, -1)"
	style="font-family:Times;font-weight:normal;font-style:normal;font-size:10pt">100</text>
<text x="24.425" y="-138.88" transform="scale(1, -1)"
	style="font-family:Times;font-weight:normal;font-style:normal;font-size:10pt">1000</text>
<text x="18.075" y="-182.47" transform="scale(1, -1)"
	style="font-family:Times;font-weight:normal;font-style:normal;font-size:10pt">1e+04</text>
<text x="18.075" y="-226.07" transform="scale(1, -1)"
	style="font-family:Times;font-weight:normal;font-style:normal;font-size:10pt">1e+05</text>
<text x="18.075" y="-269.66" transform="scale(1, -1)"
	style="font-family:Times;font-weight:normal;font-style:normal;font-size:10pt">1e+06</text>
<text x="18.075" y="-313.25" transform="scale(1, -1)"
	style="font-family:Times;font-weight:normal;font-style:normal;font-size:10pt">1e+07</text>
<path d="M57.55,46.85L62.55,46.85" style="fill:none;stroke:#000000;stroke-width:0.625" />
<path d="M57.55,49.769L62.55,49.769" style="fill:none;stroke:#000000;stroke-width:0.625" />
<path d="M57.55,52.297L62.55,52.297" style="fill:none;stroke:#000000;stroke-width:0.625" />
<path d="M57.55,54.527L62.55,54.527" style="fill:none;stroke:#000000;stroke-width:0.625" />
<path d="M52.55,56.521L62.55,56.521" style="fill:none;stroke:#000000;stroke-width:0.625" />
<path d="M57.55,69.644L62.55,69.644" style="fill:none;stroke:#000000;stroke-width:0.625" />
<path d="M57.55,77.32L62.55,77.32" style="fill:none;stroke:#000000;stroke-width:0.625" />
<path d="M57.55,82.766L62.55,82.766" style="fill:none;stroke:#000000;stroke-width:0.625" />
<path d="M57.55,86.991L62.55,86.991" style="fill:none;stroke:#000000;stroke-width:0.625" />
<path d="M57.55,90.443L62.55,90.443" style="fill:none;stroke:#000000;stroke-width:0.625" />
<path d="M57.55,93.361L62.55,93.361" style="fill:none;stroke:#000000;stroke-width:0.625" />
<path d="M57.55,95.889L62.55,95.889" style="fill:none;stroke:#000000;stroke-width:0.625" />
<path d="M57.55,98.119L62.55,98.119" style="fill:none;stroke:#000000;stroke-width:0.625" />
<path d="M52.55,100.11L62.55,100.11" style="fill:none;stroke:#000000;stroke-width:0.625" />
<path d="M57.55,113.24L62.55,113.24" style="fill:none;stroke:#000000;stroke-width:0.625" />
<path d="M57.55,120.91L62.55,120.91" style="fill:none;stroke:#000000;stroke-width:0.625" />
<path d="M57.55,126.36L62.55,126.36" style="fill:none;stroke:#000000;stroke-width:0.625" />
<path d="M57.55,130.58L62.55,130.58" style="fill:none;stroke:#000000;stroke-width:0.625" />
<path d="M57.55,134.03L62.55,134.03" style="fill:none;stroke:#000000;stroke-width:0.625" />
<path d="M57.55,136.95L62.55,136.95" style="fill:none;stroke:#000000;stroke-width:0.625" />
<path d="M57.55,139.48L62.55,139.48" style="fill:none;stroke:#000000;stroke-width:0.625" />
<path d="M57.55,141.71L62.55,141.71" style="fill:none;stroke:#000000;stroke-width:0.625" />
<path d="M52.55,143.71L62.55,143.71" style="fill:none;stroke:#000000;stroke-width:0.625" />
<path d="M57.55,156.83L62.55,156.83" style="fill:none;stroke:#000000;stroke-width:0.625" />
<path d="M57.55,164.5L62.55,164.5" style="fill:none;stroke:#000000;stroke-width:0.625" />
<path d="M57.55,169.95L62.55,169.95" style="fill:none;stroke:#000000;stroke-width:0.625" />
<path d="M57.55,174.18L62.55,174.18" style="fill:none;stroke:#000000;stroke-width:0.625" />
<path d="M57.55,177.63L62.55,177.63" style="fill:none;stroke:#000000;stroke-width:0.625" />
<path d="M57.55,180.55L62.55,180.55" style="fill:none;stroke:#000000;stroke-width:0.625" />
<path d="M57.55,183.07L62.55,183.07" style="fill:none;stroke:#000000;stroke-width:0.625" />
<path d="M57.55,185.3L62.55,185.3" style="fill:none;stroke:#000000;stroke-width:0.625" />
<path d="M52.55,187.3L62.55,187.3" style="fill:none;stroke:#000000;stroke-width:0.625" />
<path d="M57.55,200.42L62.55,200.42" style="fill:none;stroke:#000000;stroke-width:0.625" />
<path d="M57.55,208.1L62.55,208.1" style="fill:none;stroke:#000000;stroke-width:0.625" />
<path d="M57.55,213.54L62.55,213.54" style="fill:none;stroke:#000000;stroke-width:0.625" />
<path d="M57.55,217.77L62.55,217.77" style="fill:none;stroke:#000000;stroke-width:0.625" />
<path d="M57.55,221.22L62.55,221.22" style="fill:none;stroke:#000000;stroke-width:0.625" />
<path d="M57.55,224.14L62.55,224.14" style="fill:none;stroke:#000000;stroke-width:0.625" />
<path d="M57.55,226.67L62.55,226.67" style="fill:none;stroke:#000000;stroke-width:0.625" />
<path d="M57.55,228.9L62.55,228.9" style="fill:none;stroke:#000000;stroke-width:0.625" />
<path d="M52.55,230.89L62.55,230.89" style="fill:none;stroke:#000000;stroke-width:0.625" />
<path d="M57.55,244.01L62.55,244.01" style="fill:none;stroke:#000000;stroke-width:0.625" />
<path d="M57.55,251.69L62.55,251.69" style="fill:none;stroke:#000000;stroke-width:0.625" />
<path d="M57.55,257.14L62.55,257.14" style="fill:none;stroke:#000000;stroke-width:0.625" />
<path d="M57.55,261.36L62.55,261.36" style="fill:none;stroke:#000000;stroke-width:0.625" />
<path d="M57.55,264.81L62.55,264.81" style="fill:none;stroke:#000000;stroke-width:0.625" />
<path d="M57.55,267.73L62.55,267.73" style="fill:none;stroke:#000000;stroke-width:0.625" />
<path d="M57.55,270.26L62.55,270.26" style="fill:none;stroke:#000000;stroke-width:0.625" />
<path d="M57.55,272.49L62.55,272.49" style="fill:none;stroke:#000000;stroke-width:0.625" />
<path d="M52.55,274.48L62.55,274.48" style="fill:none;stroke:#000000;stroke-width:0.625" />
<path d="M57.55,287.61L62.55,287.61" style="fill:none;stroke:#000000;stroke-width:0.625" />
<path d="M57.55,295.28L62.55,295.28" style="fill:none;stroke:#000000;stroke-width:0.625" />
<path d="M57.55,300.73L62.55,300.73" style="fill:none;stroke:#000000;stroke-width:0.625" />
<path d="M57.55,304.95L62.55,304.95" style="fill:none;stroke:#000000;stroke-width:0.625" />
<path d="M57.55,308.4L62.55,308.4" style="fill:none;stroke:#000000;stroke-width:0.625" />
<path d="M57.55,311.32L62.55,311.32" style="fill:none;stroke:#000000;stroke-width:0.625" />
<path d="M57.55,313.85L62.55,313.85" style="fill:none;stroke:#000000;stroke-width:0.625" />
<path d="M57.55,316.08L62.55,316.08" style="fill:none;stroke:#000000;stroke-width:0.625" />
<path d="M52.55,318.07L62.55,318.07" style="fill:none;stroke:#000000;stroke-width:0.625" />
<path d="M62.55,46.812L62.55,319.19" style="fill:none;stroke:#000000;stroke-width:0.625" />
<path d="M75.626,46.812L268.29,233.36L284.06,247.61L293.29,255.91L299.84,261.79L304.92,266.34L309.07,270.05L312.58,273.19L315.62,275.91L318.3,278.31L320.7,280.45L322.87,282.38L324.85,284.15L326.67,285.77L328.36,287.28L329.93,288.68L331.4,289.99L332.78,291.21L334.08,292.37L335.31,293.47L336.48,294.51L337.59,295.49L338.65,296.44L339.66,297.34L340.63,298.2L341.56,299.02L342.45,299.82L343.31,300.58L344.14,301.32L344.94,302.02L345.71,302.71L346.45,303.37L347.18,304.01L347.88,304.64L348.56,305.24L349.22,305.82L349.86,306.39L350.48,306.95L351.09,307.49L351.68,308.01L352.26,308.52L352.82,309.02L353.37,309.51L353.9,309.98L354.42,310.45L354.94,310.9L355.44,311.34L355.93,311.78L356.41,312.2L356.88,312.62" style="fill:none;stroke:#00007F;stroke-width:1.25" />
<path d="M72.863,46.812L72.863,48.612" style="fill:none;stroke:#F15A60;stroke-width:1.25" />
<path d="M69.738,46.812L75.988,46.812" style="fill:none;stroke:#F15A60;stroke-width:1.25" />
<path d="M69.738,48.612L75.988,48.612" style="fill:none;stroke:#F15A60;stroke-width:1.25" />
<path d="M88.641,60.936L88.641,62.881" style="fill:none;stroke:#F15A60;stroke-width:1.25" />
<path d="M85.516,60.936L91.766,60.936" style="fill:none;stroke:#F15A60;stroke-width:1.25" />
<path d="M85.516,62.881L91.766,62.881" style="fill:none;stroke:#F15A60;stroke-width:1.25" />
<path d="M104.42,75.647L104.42,77.449" style="fill:none;stroke:#F15A60;stroke-width:1.25" />
<path d="M101.29,75.647L107.54,75.647" style="fill:none;stroke:#F15A60;stroke-width:1.25" />
<path d="M101.29,77.449L107.54,77.449" style="fill:none;stroke:#F15A60;stroke-width:1.25" />
<path d="M120.2,90.984L120.2,92.422" style="fill:none;stroke:#F15A60;stroke-width:1.25" />
<path d="M117.07,90.984L123.32,90.984" style="fill:none;stroke:#F15A60;stroke-width:1.25" />
<path d="M117.07,92.422L123.32,92.422" style="fill:none;stroke:#F15A60;stroke-width:1.25" />
<path d="M135.98,107.22L135.98,108.5" style="fill:none;stroke:#F15A60;stroke-width:1.25" />
<path d="M132.85,107.22L139.1,107.22" style="fill:none;stroke:#F15A60;stroke-width:1.25" />
<path d="M132.85,108.5L139.1,108.5" style="fill:none;stroke:#F15A60;stroke-width:1.25" />
<path d="M151.75,122.03L151.75,124.26" style="fill:none;stroke:#F15A60;stroke-width:1.25" />
<path d="M148.63,122.03L154.88,122.03" style="fill:none;stroke:#F15A60;stroke-width:1.25" />
<path d="M148.63,124.26L154.88,124.26" style="fill:none;stroke:#F15A60;stroke-width:1.25" />
<path d="M167.53,136.97L167.53,138.44" style="fill:none;stroke:#F15A60;stroke-width:1.25" />
<path d="M164.41,136.97L170.66,136.97" style="fill:none;stroke:#F15A60;stroke-width:1.25" />
<path d="M164.41,138.44L170.66,138.44" style="fill:none;stroke:#F15A60;stroke-width:1.25" />
<path d="M183.31,148.84L183.31,154.66" style="fill:none;stroke:#F15A60;stroke-width:1.25" />
<path d="M180.19,148.84L186.44,148.84" style="fill:none;stroke:#F15A60;stroke-width:1.25" />
<path d="M180.19,154.66L186.44,154.66" style="fill:none;stroke:#F15A60;stroke-width:1.25" />
<path d="M199.09,169.11L199.09,171.59" style="fill:none;stroke:#F15A60;stroke-width:1.25" />
<path d="M195.97,169.11L202.22,169.11" style="fill:none;stroke:#F15A60;stroke-width:1.25" />
<path d="M195.97,171.59L202.22,171.59" style="fill:none;stroke:#F15A60;stroke-width:1.25" />
<path d="M214.87,186.52L214.87,186.75" style="fill:none;stroke:#F15A60;stroke-width:1.25" />
<path d="M211.74,186.52L217.99,186.52" style="fill:none;stroke:#F15A60;stroke-width:1.25" />
<path d="M211.74,186.75L217.99,186.75" style="fill:none;stroke:#F15A60;stroke-width:1.25" />
<path d="M230.65,194.57L230.65,196.72" style="fill:none;stroke:#F15A60;stroke-width:1.25" />
<path d="M227.52,194.57L233.77,194.57" style="fill:none;stroke:#F15A60;stroke-width:1.25" />
<path d="M227.52,196.72L233.77,196.72" style="fill:none;stroke:#F15A60;stroke-width:1.25" />
<path d="M246.43,208.76L246.43,211.21" style="fill:none;stroke:#F15A60;stroke-width:1.25" />
<path d="M243.3,208.76L249.55,208.76" style="fill:none;stroke:#F15A60;stroke-width:1.25" />
<path d="M243.3,211.21L249.55,211.21" style="fill:none;stroke:#F15A60;stroke-width:1.25" />
<path d="M262.2,223.49L262.2,226.14" style="fill:none;stroke:#F15A60;stroke-width:1.25" />
<path d="M259.08,223.49L265.33,223.49" style="fill:none;stroke:#F15A60;stroke-width:1.25" />
<path d="M259.08,226.14L265.33,226.14" style="fill:none;stroke:#F15A60;stroke-width:1.25" />
<path d="M277.98,238.96L277.98,242.29" style="fill:none;stroke:#F15A60;stroke-width:1.25" />
<path d="M274.86,238.96L281.11,238.96" style="fill:none;stroke:#F15A60;stroke-width:1.25" />
<path d="M274.86,242.29L281.11,242.29" style="fill:none;stroke:#F15A60;stroke-width:1.25" />
<path d="M293.76,255.89L293.76,257.31" style="fill:none;stroke:#F15A60;stroke-width:1.25" />
<path d="M290.64,255.89L296.89,255.89" style="fill:none;stroke:#F15A60;stroke-width:1.25" />
<path d="M290.64,257.31L296.89,257.31" style="fill:none;stroke:#F15A60;stroke-width:1.25" />
<path d="M309.54,271.6L309.54,274.38" style="fill:none;stroke:#F15A60;stroke-width:1.25" />
<path d="M306.41,271.6L312.66,271.6" style="fill:none;stroke:#F15A60;stroke-width:1.25" />
<path d="M306.41,274.38L312.66,274.38" style="fill:none;stroke:#F15A60;stroke-width:1.25" />
<path d="M325.32,286.53L325.32,289.69" style="fill:none;stroke:#F15A60;stroke-width:1.25" />
<path d="M322.19,286.53L328.44,286.53" style="fill:none;stroke:#F15A60;stroke-width:1.25" />
<path d="M322.19,289.69L328.44,289.69" style="fill:none;stroke:#F15A60;stroke-width:1.25" />
<path d="M341.1,301.78L341.1,301.96" style="fill:none;stroke:#F15A60;stroke-width:1.25" />
<path d="M337.97,301.78L344.22,301.78" style="fill:none;stroke:#F15A60;stroke-width:1.25" />
<path d="M337.97,301.96L344.22,301.96" style="fill:none;stroke:#F15A60;stroke-width:1.25" />
<path d="M356.88,317.21L356.88,319.19" style="fill:none;stroke:#F15A60;stroke-width:1.25" />
<path d="M353.75,317.21L360,317.21" style="fill:none;stroke:#F15A60;stroke-width:1.25" />
<path d="M353.75,319.19L360,319.19" style="fill:none;stroke:#F15A60;stroke-width:1.25" />
<path d="M335,53.117L360,53.117" style="fill:none;stroke:#00007F;stroke-width:1.25" />
<text x="202.37" y="-47.328" transform="scale(1, -1)"
	style="font-family:Times;font-weight:normal;font-style:normal;font-size:12pt">C(n log n), C = 0.12  </text>
</g>
</svg>
