<?xml version="1.0"?>
<!-- Generated by SVGo and Plotinum VG -->
<svg width="6in" height="6in"
	xmlns="http://www.w3.org/2000/svg"
	xmlns:xlink="http://www.w3.org/1999/xlink">
<g transform="scale(1, -1) translate(0, -540)">
<path d="M0,0L540,0L540,540L0,540Z" style="fill:#FFFFFF" />
<text x="126.9" y="-524.2" transform="scale(1, -1)"
	style="font-family:Times;font-weight:normal;font-style:normal;font-size:12pt">Dijkstra.AllPaths, Geometric Undirected Graph</text>
<text x="230" y="-509.2" transform="scale(1, -1)"
	style="font-family:Times;font-weight:normal;font-style:normal;font-size:12pt">Size M ≈ 10N</text>
<text x="257.6" y="-5.355" transform="scale(1, -1)"
	style="font-family:Times;font-weight:normal;font-style:normal;font-size:12pt">Graph Order, N</text>
<text x="157.86" y="-19.025" transform="scale(1, -1)"
	style="font-family:Times;font-weight:normal;font-style:normal;font-size:10pt">100</text>
<text x="273.3" y="-19.025" transform="scale(1, -1)"
	style="font-family:Times;font-weight:normal;font-style:normal;font-size:10pt">1000</text>
<text x="388.7" y="-19.025" transform="scale(1, -1)"
	style="font-family:Times;font-weight:normal;font-style:normal;font-size:10pt">1e+04</text>
<text x="507.27" y="-19.025" transform="scale(1, -1)"
	style="font-family:Times;font-weight:normal;font-style:normal;font-size:10pt">1e+05</text>
<path d="M84.353,34.625L84.353,39.625" style="fill:none;stroke:#000000;stroke-width:0.625" />
<path d="M105.23,34.625L105.23,39.625" style="fill:none;stroke:#000000;stroke-width:0.625" />
<path d="M120.05,34.625L120.05,39.625" style="fill:none;stroke:#000000;stroke-width:0.625" />
<path d="M131.54,34.625L131.54,39.625" style="fill:none;stroke:#000000;stroke-width:0.625" />
<path d="M140.93,34.625L140.93,39.625" style="fill:none;stroke:#000000;stroke-width:0.625" />
<path d="M148.86,34.625L148.86,39.625" style="fill:none;stroke:#000000;stroke-width:0.625" />
<path d="M155.74,34.625L155.74,39.625" style="fill:none;stroke:#000000;stroke-width:0.625" />
<path d="M161.8,34.625L161.8,39.625" style="fill:none;stroke:#000000;stroke-width:0.625" />
<path d="M167.23,29.625L167.23,39.625" style="fill:none;stroke:#000000;stroke-width:0.625" />
<path d="M202.92,34.625L202.92,39.625" style="fill:none;stroke:#000000;stroke-width:0.625" />
<path d="M223.8,34.625L223.8,39.625" style="fill:none;stroke:#000000;stroke-width:0.625" />
<path d="M238.62,34.625L238.62,39.625" style="fill:none;stroke:#000000;stroke-width:0.625" />
<path d="M250.11,34.625L250.11,39.625" style="fill:none;stroke:#000000;stroke-width:0.625" />
<path d="M259.5,34.625L259.5,39.625" style="fill:none;stroke:#000000;stroke-width:0.625" />
<path d="M267.43,34.625L267.43,39.625" style="fill:none;stroke:#000000;stroke-width:0.625" />
<path d="M274.31,34.625L274.31,39.625" style="fill:none;stroke:#000000;stroke-width:0.625" />
<path d="M280.38,34.625L280.38,39.625" style="fill:none;stroke:#000000;stroke-width:0.625" />
<path d="M285.8,29.625L285.8,39.625" style="fill:none;stroke:#000000;stroke-width:0.625" />
<path d="M321.49,34.625L321.49,39.625" style="fill:none;stroke:#000000;stroke-width:0.625" />
<path d="M342.37,34.625L342.37,39.625" style="fill:none;stroke:#000000;stroke-width:0.625" />
<path d="M357.19,34.625L357.19,39.625" style="fill:none;stroke:#000000;stroke-width:0.625" />
<path d="M368.68,34.625L368.68,39.625" style="fill:none;stroke:#000000;stroke-width:0.625" />
<path d="M378.07,34.625L378.07,39.625" style="fill:none;stroke:#000000;stroke-width:0.625" />
<path d="M386,34.625L386,39.625" style="fill:none;stroke:#000000;stroke-width:0.625" />
<path d="M392.88,34.625L392.88,39.625" style="fill:none;stroke:#000000;stroke-width:0.625" />
<path d="M398.95,34.625L398.95,39.625" style="fill:none;stroke:#000000;stroke-width:0.625" />
<path d="M404.37,29.625L404.37,39.625" style="fill:none;stroke:#000000;stroke-width:0.625" />
<path d="M440.06,34.625L440.06,39.625" style="fill:none;stroke:#000000;stroke-width:0.625" />
<path d="M460.94,34.625L460.94,39.625" style="fill:none;stroke:#000000;stroke-width:0.625" />
<path d="M475.76,34.625L475.76,39.625" style="fill:none;stroke:#000000;stroke-width:0.625" />
<path d="M487.25,34.625L487.25,39.625" style="fill:none;stroke:#000000;stroke-width:0.625" />
<path d="M496.64,34.625L496.64,39.625" style="fill:none;stroke:#000000;stroke-width:0.625" />
<path d="M504.57,34.625L504.57,39.625" style="fill:none;stroke:#000000;stroke-width:0.625" />
<path d="M511.45,34.625L511.45,39.625" style="fill:none;stroke:#000000;stroke-width:0.625" />
<path d="M517.52,34.625L517.52,39.625" style="fill:none;stroke:#000000;stroke-width:0.625" />
<path d="M522.94,29.625L522.94,39.625" style="fill:none;stroke:#000000;stroke-width:0.625" />
<path d="M72.863,39.625L536.88,39.625" style="fill:none;stroke:#000000;stroke-width:0.625" />
<g transform="rotate(90)">
<text x="263.57" y="12.72" transform="scale(1, -1)"
	style="font-family:Times;font-weight:normal;font-style:normal;font-size:12pt">µsec</text>
</g>
<text x="36.925" y="-74.99" transform="scale(1, -1)"
	style="font-family:Times;font-weight:normal;font-style:normal;font-size:10pt">10</text>
<text x="30.675" y="-177.65" transform="scale(1, -1)"
	style="font-family:Times;font-weight:normal;font-style:normal;font-size:10pt">100</text>
<text x="24.425" y="-280.31" transform="scale(1, -1)"
	style="font-family:Times;font-weight:normal;font-style:normal;font-size:10pt">1000</text>
<text x="18.075" y="-382.96" transform="scale(1, -1)"
	style="font-family:Times;font-weight:normal;font-style:normal;font-size:10pt">1e+04</text>
<text x="18.075" y="-485.62" transform="scale(1, -1)"
	style="font-family:Times;font-weight:normal;font-style:normal;font-size:10pt">1e+05</text>
<path d="M57.55,48.912L62.55,48.912" style="fill:none;stroke:#000000;stroke-width:0.625" />
<path d="M57.55,57.041L62.55,57.041" style="fill:none;stroke:#000000;stroke-width:0.625" />
<path d="M57.55,63.913L62.55,63.913" style="fill:none;stroke:#000000;stroke-width:0.625" />
<path d="M57.55,69.866L62.55,69.866" style="fill:none;stroke:#000000;stroke-width:0.625" />
<path d="M57.55,75.118L62.55,75.118" style="fill:none;stroke:#000000;stroke-width:0.625" />
<path d="M52.55,79.815L62.55,79.815" style="fill:none;stroke:#000000;stroke-width:0.625" />
<path d="M57.55,110.72L62.55,110.72" style="fill:none;stroke:#000000;stroke-width:0.625" />
<path d="M57.55,128.8L62.55,128.8" style="fill:none;stroke:#000000;stroke-width:0.625" />
<path d="M57.55,141.62L62.55,141.62" style="fill:none;stroke:#000000;stroke-width:0.625" />
<path d="M57.55,151.57L62.55,151.57" style="fill:none;stroke:#000000;stroke-width:0.625" />
<path d="M57.55,159.7L62.55,159.7" style="fill:none;stroke:#000000;stroke-width:0.625" />
<path d="M57.55,166.57L62.55,166.57" style="fill:none;stroke:#000000;stroke-width:0.625" />
<path d="M57.55,172.52L62.55,172.52" style="fill:none;stroke:#000000;stroke-width:0.625" />
<path d="M57.55,177.78L62.55,177.78" style="fill:none;stroke:#000000;stroke-width:0.625" />
<path d="M52.55,182.47L62.55,182.47" style="fill:none;stroke:#000000;stroke-width:0.625" />
<path d="M57.55,213.38L62.55,213.38" style="fill:none;stroke:#000000;stroke-width:0.625" />
<path d="M57.55,231.45L62.55,231.45" style="fill:none;stroke:#000000;stroke-width:0.625" />
<path d="M57.55,244.28L62.55,244.28" style="fill:none;stroke:#000000;stroke-width:0.625" />
<path d="M57.55,254.23L62.55,254.23" style="fill:none;stroke:#000000;stroke-width:0.625" />
<path d="M57.55,262.36L62.55,262.36" style="fill:none;stroke:#000000;stroke-width:0.625" />
<path d="M57.55,269.23L62.55,269.23" style="fill:none;stroke:#000000;stroke-width:0.625" />
<path d="M57.55,275.18L62.55,275.18" style="fill:none;stroke:#000000;stroke-width:0.625" />
<path d="M57.55,280.43L62.55,280.43" style="fill:none;stroke:#000000;stroke-width:0.625" />
<path d="M52.55,285.13L62.55,285.13" style="fill:none;stroke:#000000;stroke-width:0.625" />
<path d="M57.55,316.03L62.55,316.03" style="fill:none;stroke:#000000;stroke-width:0.625" />
<path d="M57.55,334.11L62.55,334.11" style="fill:none;stroke:#000000;stroke-width:0.625" />
<path d="M57.55,346.94L62.55,346.94" style="fill:none;stroke:#000000;stroke-width:0.625" />
<path d="M57.55,356.88L62.55,356.88" style="fill:none;stroke:#000000;stroke-width:0.625" />
<path d="M57.55,365.01L62.55,365.01" style="fill:none;stroke:#000000;stroke-width:0.625" />
<path d="M57.55,371.89L62.55,371.89" style="fill:none;stroke:#000000;stroke-width:0.625" />
<path d="M57.55,377.84L62.55,377.84" style="fill:none;stroke:#000000;stroke-width:0.625" />
<path d="M57.55,383.09L62.55,383.09" style="fill:none;stroke:#000000;stroke-width:0.625" />
<path d="M52.55,387.79L62.55,387.79" style="fill:none;stroke:#000000;stroke-width:0.625" />
<path d="M57.55,418.69L62.55,418.69" style="fill:none;stroke:#000000;stroke-width:0.625" />
<path d="M57.55,436.77L62.55,436.77" style="fill:none;stroke:#000000;stroke-width:0.625" />
<path d="M57.55,449.59L62.55,449.59" style="fill:none;stroke:#000000;stroke-width:0.625" />
<path d="M57.55,459.54L62.55,459.54" style="fill:none;stroke:#000000;stroke-width:0.625" />
<path d="M57.55,467.67L62.55,467.67" style="fill:none;stroke:#000000;stroke-width:0.625" />
<path d="M57.55,474.54L62.55,474.54" style="fill:none;stroke:#000000;stroke-width:0.625" />
<path d="M57.55,480.5L62.55,480.5" style="fill:none;stroke:#000000;stroke-width:0.625" />
<path d="M57.55,485.75L62.55,485.75" style="fill:none;stroke:#000000;stroke-width:0.625" />
<path d="M52.55,490.45L62.55,490.45" style="fill:none;stroke:#000000;stroke-width:0.625" />
<path d="M62.55,46.812L62.55,503.23" style="fill:none;stroke:#000000;stroke-width:0.625" />
<path d="M93.759,46.812L336.77,300.18L372.31,334.69L393.14,354.77L407.92,368.98L419.4,379.97L428.78,388.94L436.71,396.51L443.58,403.06L449.64,408.83L455.06,413.98L459.97,418.65L464.45,422.9L468.57,426.81L472.38,430.42L475.93,433.79L479.25,436.94L482.37,439.89L485.32,442.68L488.1,445.31L490.74,447.8L493.25,450.18L495.65,452.44L497.94,454.6L500.13,456.67L502.23,458.65L504.25,460.56L506.19,462.39L508.06,464.16L509.87,465.86L511.61,467.51L513.3,469.1L514.94,470.64L516.52,472.13L518.06,473.58L519.55,474.98L521,476.35L522.41,477.68L523.79,478.97L525.12,480.23L526.43,481.45L527.7,482.65L528.94,483.81L530.15,484.95L531.33,486.07L532.49,487.15L533.62,488.22L534.73,489.26L535.81,490.28L536.88,491.27" style="fill:none;stroke:#00007F;stroke-width:1.25" />
<path d="M72.863,46.812L72.863,54.832" style="fill:none;stroke:#F15A60;stroke-width:1.25" />
<path d="M69.738,46.812L75.988,46.812" style="fill:none;stroke:#F15A60;stroke-width:1.25" />
<path d="M69.738,54.832L75.988,54.832" style="fill:none;stroke:#F15A60;stroke-width:1.25" />
<path d="M108.56,82.894L108.56,93.837" style="fill:none;stroke:#F15A60;stroke-width:1.25" />
<path d="M105.43,82.894L111.68,82.894" style="fill:none;stroke:#F15A60;stroke-width:1.25" />
<path d="M105.43,93.837L111.68,93.837" style="fill:none;stroke:#F15A60;stroke-width:1.25" />
<path d="M144.25,106.21L144.25,116.62" style="fill:none;stroke:#F15A60;stroke-width:1.25" />
<path d="M141.12,106.21L147.37,106.21" style="fill:none;stroke:#F15A60;stroke-width:1.25" />
<path d="M141.12,116.62L147.37,116.62" style="fill:none;stroke:#F15A60;stroke-width:1.25" />
<path d="M179.94,147.32L179.94,153" style="fill:none;stroke:#F15A60;stroke-width:1.25" />
<path d="M176.82,147.32L183.07,147.32" style="fill:none;stroke:#F15A60;stroke-width:1.25" />
<path d="M176.82,153L183.07,153" style="fill:none;stroke:#F15A60;stroke-width:1.25" />
<path d="M215.64,182.79L215.64,191.85" style="fill:none;stroke:#F15A60;stroke-width:1.25" />
<path d="M212.51,182.79L218.76,182.79" style="fill:none;stroke:#F15A60;stroke-width:1.25" />
<path d="M212.51,191.85L218.76,191.85" style="fill:none;stroke:#F15A60;stroke-width:1.25" />
<path d="M251.33,217.2L251.33,221.92" style="fill:none;stroke:#F15A60;stroke-width:1.25" />
<path d="M248.2,217.2L254.45,217.2" style="fill:none;stroke:#F15A60;stroke-width:1.25" />
<path d="M248.2,221.92L254.45,221.92" style="fill:none;stroke:#F15A60;stroke-width:1.25" />
<path d="M287.02,247.76L287.02,257.68" style="fill:none;stroke:#F15A60;stroke-width:1.25" />
<path d="M283.9,247.76L290.15,247.76" style="fill:none;stroke:#F15A60;stroke-width:1.25" />
<path d="M283.9,257.68L290.15,257.68" style="fill:none;stroke:#F15A60;stroke-width:1.25" />
<path d="M322.72,284.46L322.72,292.13" style="fill:none;stroke:#F15A60;stroke-width:1.25" />
<path d="M319.59,284.46L325.84,284.46" style="fill:none;stroke:#F15A60;stroke-width:1.25" />
<path d="M319.59,292.13L325.84,292.13" style="fill:none;stroke:#F15A60;stroke-width:1.25" />
<path d="M358.41,313.81L358.41,320.9" style="fill:none;stroke:#F15A60;stroke-width:1.25" />
<path d="M355.28,313.81L361.53,313.81" style="fill:none;stroke:#F15A60;stroke-width:1.25" />
<path d="M355.28,320.9L361.53,320.9" style="fill:none;stroke:#F15A60;stroke-width:1.25" />
<path d="M394.1,348.3L394.1,351.23" style="fill:none;stroke:#F15A60;stroke-width:1.25" />
<path d="M390.98,348.3L397.23,348.3" style="fill:none;stroke:#F15A60;stroke-width:1.25" />
<path d="M390.98,351.23L397.23,351.23" style="fill:none;stroke:#F15A60;stroke-width:1.25" />
<path d="M429.8,383.43L429.8,384.77" style="fill:none;stroke:#F15A60;stroke-width:1.25" />
<path d="M426.67,383.43L432.92,383.43" style="fill:none;stroke:#F15A60;stroke-width:1.25" />
<path d="M426.67,384.77L432.92,384.77" style="fill:none;stroke:#F15A60;stroke-width:1.25" />
<path d="M465.49,419.85L465.49,423.64" style="fill:none;stroke:#F15A60;stroke-width:1.25" />
<path d="M462.36,419.85L468.61,419.85" style="fill:none;stroke:#F15A60;stroke-width:1.25" />
<path d="M462.36,423.64L468.61,423.64" style="fill:none;stroke:#F15A60;stroke-width:1.25" />
<path d="M501.18,461.55L501.18,466.23" style="fill:none;stroke:#F15A60;stroke-width:1.25" />
<path d="M498.06,461.55L504.31,461.55" style="fill:none;stroke:#F15A60;stroke-width:1.25" />
<path d="M498.06,466.23L504.31,466.23" style="fill:none;stroke:#F15A60;stroke-width:1.25" />
<path d="M536.88,499.4L536.88,503.23" style="fill:none;stroke:#F15A60;stroke-width:1.25" />
<path d="M533.75,499.4L540,499.4" style="fill:none;stroke:#F15A60;stroke-width:1.25" />
<path d="M533.75,503.23L540,503.23" style="fill:none;stroke:#F15A60;stroke-width:1.25" />
<path d="M515,53.117L540,53.117" style="fill:none;stroke:#00007F;stroke-width:1.25" />
<text x="382.37" y="-47.328" transform="scale(1, -1)"
	style="font-family:Times;font-weight:normal;font-style:normal;font-size:12pt">C(n log n), C = 0.07  </text>
</g>
</svg>
