<?xml version="1.0"?>
<!-- Generated by SVGo and Plotinum VG -->
<svg width="6in" height="6in"
	xmlns="http://www.w3.org/2000/svg"
	xmlns:xlink="http://www.w3.org/1999/xlink">
<g transform="scale(1, -1) translate(0, -540)">
<path d="M0,0L540,0L540,540L0,540Z" style="fill:#FFFFFF" />
<text x="167.93" y="-524.2" transform="scale(1, -1)"
	style="font-family:Times;font-weight:normal;font-style:normal;font-size:12pt">Dijkstra.AllPaths, Directed Graph</text>
<text x="209.12" y="-509.2" transform="scale(1, -1)"
	style="font-family:Times;font-weight:normal;font-style:normal;font-size:12pt">Arc Size MA = 10N</text>
<text x="257.6" y="-5.355" transform="scale(1, -1)"
	style="font-family:Times;font-weight:normal;font-style:normal;font-size:12pt">Graph Order, N</text>
<text x="131.64" y="-19.025" transform="scale(1, -1)"
	style="font-family:Times;font-weight:normal;font-style:normal;font-size:10pt">100</text>
<text x="214.15" y="-19.025" transform="scale(1, -1)"
	style="font-family:Times;font-weight:normal;font-style:normal;font-size:10pt">1000</text>
<text x="296.61" y="-19.025" transform="scale(1, -1)"
	style="font-family:Times;font-weight:normal;font-style:normal;font-size:10pt">1e+04</text>
<text x="382.24" y="-19.025" transform="scale(1, -1)"
	style="font-family:Times;font-weight:normal;font-style:normal;font-size:10pt">1e+05</text>
<text x="467.88" y="-19.025" transform="scale(1, -1)"
	style="font-family:Times;font-weight:normal;font-style:normal;font-size:10pt">1e+06</text>
<path d="M81.161,34.625L81.161,39.625" style="fill:none;stroke:#000000;stroke-width:0.625" />
<path d="M96.241,34.625L96.241,39.625" style="fill:none;stroke:#000000;stroke-width:0.625" />
<path d="M106.94,34.625L106.94,39.625" style="fill:none;stroke:#000000;stroke-width:0.625" />
<path d="M115.24,34.625L115.24,39.625" style="fill:none;stroke:#000000;stroke-width:0.625" />
<path d="M122.02,34.625L122.02,39.625" style="fill:none;stroke:#000000;stroke-width:0.625" />
<path d="M127.75,34.625L127.75,39.625" style="fill:none;stroke:#000000;stroke-width:0.625" />
<path d="M132.72,34.625L132.72,39.625" style="fill:none;stroke:#000000;stroke-width:0.625" />
<path d="M137.1,34.625L137.1,39.625" style="fill:none;stroke:#000000;stroke-width:0.625" />
<path d="M141.02,29.625L141.02,39.625" style="fill:none;stroke:#000000;stroke-width:0.625" />
<path d="M166.8,34.625L166.8,39.625" style="fill:none;stroke:#000000;stroke-width:0.625" />
<path d="M181.87,34.625L181.87,39.625" style="fill:none;stroke:#000000;stroke-width:0.625" />
<path d="M192.57,34.625L192.57,39.625" style="fill:none;stroke:#000000;stroke-width:0.625" />
<path d="M200.87,34.625L200.87,39.625" style="fill:none;stroke:#000000;stroke-width:0.625" />
<path d="M207.65,34.625L207.65,39.625" style="fill:none;stroke:#000000;stroke-width:0.625" />
<path d="M213.39,34.625L213.39,39.625" style="fill:none;stroke:#000000;stroke-width:0.625" />
<path d="M218.35,34.625L218.35,39.625" style="fill:none;stroke:#000000;stroke-width:0.625" />
<path d="M222.73,34.625L222.73,39.625" style="fill:none;stroke:#000000;stroke-width:0.625" />
<path d="M226.65,29.625L226.65,39.625" style="fill:none;stroke:#000000;stroke-width:0.625" />
<path d="M252.43,34.625L252.43,39.625" style="fill:none;stroke:#000000;stroke-width:0.625" />
<path d="M267.51,34.625L267.51,39.625" style="fill:none;stroke:#000000;stroke-width:0.625" />
<path d="M278.21,34.625L278.21,39.625" style="fill:none;stroke:#000000;stroke-width:0.625" />
<path d="M286.51,34.625L286.51,39.625" style="fill:none;stroke:#000000;stroke-width:0.625" />
<path d="M293.29,34.625L293.29,39.625" style="fill:none;stroke:#000000;stroke-width:0.625" />
<path d="M299.02,34.625L299.02,39.625" style="fill:none;stroke:#000000;stroke-width:0.625" />
<path d="M303.99,34.625L303.99,39.625" style="fill:none;stroke:#000000;stroke-width:0.625" />
<path d="M308.37,34.625L308.37,39.625" style="fill:none;stroke:#000000;stroke-width:0.625" />
<path d="M312.29,29.625L312.29,39.625" style="fill:none;stroke:#000000;stroke-width:0.625" />
<path d="M338.06,34.625L338.06,39.625" style="fill:none;stroke:#000000;stroke-width:0.625" />
<path d="M353.14,34.625L353.14,39.625" style="fill:none;stroke:#000000;stroke-width:0.625" />
<path d="M363.84,34.625L363.84,39.625" style="fill:none;stroke:#000000;stroke-width:0.625" />
<path d="M372.14,34.625L372.14,39.625" style="fill:none;stroke:#000000;stroke-width:0.625" />
<path d="M378.92,34.625L378.92,39.625" style="fill:none;stroke:#000000;stroke-width:0.625" />
<path d="M384.65,34.625L384.65,39.625" style="fill:none;stroke:#000000;stroke-width:0.625" />
<path d="M389.62,34.625L389.62,39.625" style="fill:none;stroke:#000000;stroke-width:0.625" />
<path d="M394,34.625L394,39.625" style="fill:none;stroke:#000000;stroke-width:0.625" />
<path d="M397.92,29.625L397.92,39.625" style="fill:none;stroke:#000000;stroke-width:0.625" />
<path d="M423.7,34.625L423.7,39.625" style="fill:none;stroke:#000000;stroke-width:0.625" />
<path d="M438.78,34.625L438.78,39.625" style="fill:none;stroke:#000000;stroke-width:0.625" />
<path d="M449.48,34.625L449.48,39.625" style="fill:none;stroke:#000000;stroke-width:0.625" />
<path d="M457.78,34.625L457.78,39.625" style="fill:none;stroke:#000000;stroke-width:0.625" />
<path d="M464.56,34.625L464.56,39.625" style="fill:none;stroke:#000000;stroke-width:0.625" />
<path d="M470.29,34.625L470.29,39.625" style="fill:none;stroke:#000000;stroke-width:0.625" />
<path d="M475.26,34.625L475.26,39.625" style="fill:none;stroke:#000000;stroke-width:0.625" />
<path d="M479.64,34.625L479.64,39.625" style="fill:none;stroke:#000000;stroke-width:0.625" />
<path d="M483.55,29.625L483.55,39.625" style="fill:none;stroke:#000000;stroke-width:0.625" />
<path d="M509.33,34.625L509.33,39.625" style="fill:none;stroke:#000000;stroke-width:0.625" />
<path d="M524.41,34.625L524.41,39.625" style="fill:none;stroke:#000000;stroke-width:0.625" />
<path d="M535.11,34.625L535.11,39.625" style="fill:none;stroke:#000000;stroke-width:0.625" />
<path d="M72.863,39.625L536.88,39.625" style="fill:none;stroke:#000000;stroke-width:0.625" />
<g transform="rotate(90)">
<text x="263.57" y="12.72" transform="scale(1, -1)"
	style="font-family:Times;font-weight:normal;font-style:normal;font-size:12pt">µsec</text>
</g>
<text x="36.925" y="-66.26" transform="scale(1, -1)"
	style="font-family:Times;font-weight:normal;font-style:normal;font-size:10pt">10</text>
<text x="30.675" y="-138.54" transform="scale(1, -1)"
	style="font-family:Times;font-weight:normal;font-style:normal;font-size:10pt">100</text>
<text x="24.425" y="-210.81" transform="scale(1, -1)"
	style="font-family:Times;font-weight:normal;font-style:normal;font-size:10pt">1000</text>
<text x="18.075" y="-283.09" transform="scale(1, -1)"
	style="font-family:Times;font-weight:normal;font-style:normal;font-size:10pt">1e+04</text>
<text x="18.075" y="-355.36" transform="scale(1, -1)"
	style="font-family:Times;font-weight:normal;font-style:normal;font-size:10pt">1e+05</text>
<text x="18.075" y="-427.64" transform="scale(1, -1)"
	style="font-family:Times;font-weight:normal;font-style:normal;font-size:10pt">1e+06</text>
<path d="M57.55,49.328L62.55,49.328" style="fill:none;stroke:#000000;stroke-width:0.625" />
<path d="M57.55,55.05L62.55,55.05" style="fill:none;stroke:#000000;stroke-width:0.625" />
<path d="M57.55,59.889L62.55,59.889" style="fill:none;stroke:#000000;stroke-width:0.625" />
<path d="M57.55,64.081L62.55,64.081" style="fill:none;stroke:#000000;stroke-width:0.625" />
<path d="M57.55,67.778L62.55,67.778" style="fill:none;stroke:#000000;stroke-width:0.625" />
<path d="M52.55,71.085L62.55,71.085" style="fill:none;stroke:#000000;stroke-width:0.625" />
<path d="M57.55,92.842L62.55,92.842" style="fill:none;stroke:#000000;stroke-width:0.625" />
<path d="M57.55,105.57L62.55,105.57" style="fill:none;stroke:#000000;stroke-width:0.625" />
<path d="M57.55,114.6L62.55,114.6" style="fill:none;stroke:#000000;stroke-width:0.625" />
<path d="M57.55,121.6L62.55,121.6" style="fill:none;stroke:#000000;stroke-width:0.625" />
<path d="M57.55,127.33L62.55,127.33" style="fill:none;stroke:#000000;stroke-width:0.625" />
<path d="M57.55,132.17L62.55,132.17" style="fill:none;stroke:#000000;stroke-width:0.625" />
<path d="M57.55,136.36L62.55,136.36" style="fill:none;stroke:#000000;stroke-width:0.625" />
<path d="M57.55,140.05L62.55,140.05" style="fill:none;stroke:#000000;stroke-width:0.625" />
<path d="M52.55,143.36L62.55,143.36" style="fill:none;stroke:#000000;stroke-width:0.625" />
<path d="M57.55,165.12L62.55,165.12" style="fill:none;stroke:#000000;stroke-width:0.625" />
<path d="M57.55,177.85L62.55,177.85" style="fill:none;stroke:#000000;stroke-width:0.625" />
<path d="M57.55,186.88L62.55,186.88" style="fill:none;stroke:#000000;stroke-width:0.625" />
<path d="M57.55,193.88L62.55,193.88" style="fill:none;stroke:#000000;stroke-width:0.625" />
<path d="M57.55,199.6L62.55,199.6" style="fill:none;stroke:#000000;stroke-width:0.625" />
<path d="M57.55,204.44L62.55,204.44" style="fill:none;stroke:#000000;stroke-width:0.625" />
<path d="M57.55,208.63L62.55,208.63" style="fill:none;stroke:#000000;stroke-width:0.625" />
<path d="M57.55,212.33L62.55,212.33" style="fill:none;stroke:#000000;stroke-width:0.625" />
<path d="M52.55,215.64L62.55,215.64" style="fill:none;stroke:#000000;stroke-width:0.625" />
<path d="M57.55,237.39L62.55,237.39" style="fill:none;stroke:#000000;stroke-width:0.625" />
<path d="M57.55,250.12L62.55,250.12" style="fill:none;stroke:#000000;stroke-width:0.625" />
<path d="M57.55,259.15L62.55,259.15" style="fill:none;stroke:#000000;stroke-width:0.625" />
<path d="M57.55,266.16L62.55,266.16" style="fill:none;stroke:#000000;stroke-width:0.625" />
<path d="M57.55,271.88L62.55,271.88" style="fill:none;stroke:#000000;stroke-width:0.625" />
<path d="M57.55,276.72L62.55,276.72" style="fill:none;stroke:#000000;stroke-width:0.625" />
<path d="M57.55,280.91L62.55,280.91" style="fill:none;stroke:#000000;stroke-width:0.625" />
<path d="M57.55,284.61L62.55,284.61" style="fill:none;stroke:#000000;stroke-width:0.625" />
<path d="M52.55,287.91L62.55,287.91" style="fill:none;stroke:#000000;stroke-width:0.625" />
<path d="M57.55,309.67L62.55,309.67" style="fill:none;stroke:#000000;stroke-width:0.625" />
<path d="M57.55,322.4L62.55,322.4" style="fill:none;stroke:#000000;stroke-width:0.625" />
<path d="M57.55,331.43L62.55,331.43" style="fill:none;stroke:#000000;stroke-width:0.625" />
<path d="M57.55,338.43L62.55,338.43" style="fill:none;stroke:#000000;stroke-width:0.625" />
<path d="M57.55,344.15L62.55,344.15" style="fill:none;stroke:#000000;stroke-width:0.625" />
<path d="M57.55,348.99L62.55,348.99" style="fill:none;stroke:#000000;stroke-width:0.625" />
<path d="M57.55,353.18L62.55,353.18" style="fill:none;stroke:#000000;stroke-width:0.625" />
<path d="M57.55,356.88L62.55,356.88" style="fill:none;stroke:#000000;stroke-width:0.625" />
<path d="M52.55,360.19L62.55,360.19" style="fill:none;stroke:#000000;stroke-width:0.625" />
<path d="M57.55,381.95L62.55,381.95" style="fill:none;stroke:#000000;stroke-width:0.625" />
<path d="M57.55,394.67L62.55,394.67" style="fill:none;stroke:#000000;stroke-width:0.625" />
<path d="M57.55,403.7L62.55,403.7" style="fill:none;stroke:#000000;stroke-width:0.625" />
<path d="M57.55,410.71L62.55,410.71" style="fill:none;stroke:#000000;stroke-width:0.625" />
<path d="M57.55,416.43L62.55,416.43" style="fill:none;stroke:#000000;stroke-width:0.625" />
<path d="M57.55,421.27L62.55,421.27" style="fill:none;stroke:#000000;stroke-width:0.625" />
<path d="M57.55,425.46L62.55,425.46" style="fill:none;stroke:#000000;stroke-width:0.625" />
<path d="M57.55,429.16L62.55,429.16" style="fill:none;stroke:#000000;stroke-width:0.625" />
<path d="M52.55,432.46L62.55,432.46" style="fill:none;stroke:#000000;stroke-width:0.625" />
<path d="M57.55,454.22L62.55,454.22" style="fill:none;stroke:#000000;stroke-width:0.625" />
<path d="M57.55,466.95L62.55,466.95" style="fill:none;stroke:#000000;stroke-width:0.625" />
<path d="M57.55,475.98L62.55,475.98" style="fill:none;stroke:#000000;stroke-width:0.625" />
<path d="M57.55,482.98L62.55,482.98" style="fill:none;stroke:#000000;stroke-width:0.625" />
<path d="M57.55,488.71L62.55,488.71" style="fill:none;stroke:#000000;stroke-width:0.625" />
<path d="M57.55,493.54L62.55,493.54" style="fill:none;stroke:#000000;stroke-width:0.625" />
<path d="M57.55,497.74L62.55,497.74" style="fill:none;stroke:#000000;stroke-width:0.625" />
<path d="M57.55,501.43L62.55,501.43" style="fill:none;stroke:#000000;stroke-width:0.625" />
<path d="M62.55,46.812L62.55,503.23" style="fill:none;stroke:#000000;stroke-width:0.625" />
<path d="M72.863,49.996L392.14,363.73L417.92,387.35L433,401.11L443.69,410.86L451.99,418.41L458.77,424.57L464.51,429.77L469.47,434.28L473.85,438.25L477.77,441.8L481.32,445.01L484.55,447.94L487.53,450.63L490.28,453.12L492.85,455.44L495.25,457.61L497.51,459.65L499.63,461.57L501.64,463.39L503.55,465.11L505.36,466.75L507.09,468.31L508.75,469.8L510.33,471.23L511.85,472.6L513.31,473.91L514.71,475.18L516.06,476.4L517.37,477.57L518.63,478.71L519.85,479.81L521.03,480.87L522.17,481.9L523.28,482.9L524.36,483.88L525.41,484.82L526.43,485.74L527.42,486.63L528.39,487.5L529.33,488.35L530.25,489.17L531.14,489.98L532.02,490.77L532.87,491.54L533.71,492.29L534.53,493.02L535.33,493.74L536.11,494.45L536.88,495.14" style="fill:none;stroke:#00007F;stroke-width:1.25" />
<path d="M72.863,46.812L72.863,54.592" style="fill:none;stroke:#F15A60;stroke-width:1.25" />
<path d="M69.738,46.812L75.988,46.812" style="fill:none;stroke:#F15A60;stroke-width:1.25" />
<path d="M69.738,54.592L75.988,54.592" style="fill:none;stroke:#F15A60;stroke-width:1.25" />
<path d="M98.641,63.864L98.641,80.072" style="fill:none;stroke:#F15A60;stroke-width:1.25" />
<path d="M95.516,63.864L101.77,63.864" style="fill:none;stroke:#F15A60;stroke-width:1.25" />
<path d="M95.516,80.072L101.77,80.072" style="fill:none;stroke:#F15A60;stroke-width:1.25" />
<path d="M124.42,101.68L124.42,104.99" style="fill:none;stroke:#F15A60;stroke-width:1.25" />
<path d="M121.29,101.68L127.54,101.68" style="fill:none;stroke:#F15A60;stroke-width:1.25" />
<path d="M121.29,104.99L127.54,104.99" style="fill:none;stroke:#F15A60;stroke-width:1.25" />
<path d="M150.2,127.22L150.2,129.94" style="fill:none;stroke:#F15A60;stroke-width:1.25" />
<path d="M147.07,127.22L153.32,127.22" style="fill:none;stroke:#F15A60;stroke-width:1.25" />
<path d="M147.07,129.94L153.32,129.94" style="fill:none;stroke:#F15A60;stroke-width:1.25" />
<path d="M175.98,151.5L175.98,156.83" style="fill:none;stroke:#F15A60;stroke-width:1.25" />
<path d="M172.85,151.5L179.1,151.5" style="fill:none;stroke:#F15A60;stroke-width:1.25" />
<path d="M172.85,156.83L179.1,156.83" style="fill:none;stroke:#F15A60;stroke-width:1.25" />
<path d="M201.75,179.64L201.75,183.19" style="fill:none;stroke:#F15A60;stroke-width:1.25" />
<path d="M198.63,179.64L204.88,179.64" style="fill:none;stroke:#F15A60;stroke-width:1.25" />
<path d="M198.63,183.19L204.88,183.19" style="fill:none;stroke:#F15A60;stroke-width:1.25" />
<path d="M227.53,202.74L227.53,207.73" style="fill:none;stroke:#F15A60;stroke-width:1.25" />
<path d="M224.41,202.74L230.66,202.74" style="fill:none;stroke:#F15A60;stroke-width:1.25" />
<path d="M224.41,207.73L230.66,207.73" style="fill:none;stroke:#F15A60;stroke-width:1.25" />
<path d="M253.31,228.07L253.31,230.02" style="fill:none;stroke:#F15A60;stroke-width:1.25" />
<path d="M250.19,228.07L256.44,228.07" style="fill:none;stroke:#F15A60;stroke-width:1.25" />
<path d="M250.19,230.02L256.44,230.02" style="fill:none;stroke:#F15A60;stroke-width:1.25" />
<path d="M279.09,256.22L279.09,261.47" style="fill:none;stroke:#F15A60;stroke-width:1.25" />
<path d="M275.97,256.22L282.22,256.22" style="fill:none;stroke:#F15A60;stroke-width:1.25" />
<path d="M275.97,261.47L282.22,261.47" style="fill:none;stroke:#F15A60;stroke-width:1.25" />
<path d="M304.87,283.62L304.87,288.83" style="fill:none;stroke:#F15A60;stroke-width:1.25" />
<path d="M301.74,283.62L307.99,283.62" style="fill:none;stroke:#F15A60;stroke-width:1.25" />
<path d="M301.74,288.83L307.99,288.83" style="fill:none;stroke:#F15A60;stroke-width:1.25" />
<path d="M330.65,302.31L330.65,306.36" style="fill:none;stroke:#F15A60;stroke-width:1.25" />
<path d="M327.52,302.31L333.77,302.31" style="fill:none;stroke:#F15A60;stroke-width:1.25" />
<path d="M327.52,306.36L333.77,306.36" style="fill:none;stroke:#F15A60;stroke-width:1.25" />
<path d="M356.43,324.96L356.43,327.17" style="fill:none;stroke:#F15A60;stroke-width:1.25" />
<path d="M353.3,324.96L359.55,324.96" style="fill:none;stroke:#F15A60;stroke-width:1.25" />
<path d="M353.3,327.17L359.55,327.17" style="fill:none;stroke:#F15A60;stroke-width:1.25" />
<path d="M382.2,349.7L382.2,355.35" style="fill:none;stroke:#F15A60;stroke-width:1.25" />
<path d="M379.08,349.7L385.33,349.7" style="fill:none;stroke:#F15A60;stroke-width:1.25" />
<path d="M379.08,355.35L385.33,355.35" style="fill:none;stroke:#F15A60;stroke-width:1.25" />
<path d="M407.98,376.17L407.98,377.4" style="fill:none;stroke:#F15A60;stroke-width:1.25" />
<path d="M404.86,376.17L411.11,376.17" style="fill:none;stroke:#F15A60;stroke-width:1.25" />
<path d="M404.86,377.4L411.11,377.4" style="fill:none;stroke:#F15A60;stroke-width:1.25" />
<path d="M433.76,401.04L433.76,406.9" style="fill:none;stroke:#F15A60;stroke-width:1.25" />
<path d="M430.64,401.04L436.89,401.04" style="fill:none;stroke:#F15A60;stroke-width:1.25" />
<path d="M430.64,406.9L436.89,406.9" style="fill:none;stroke:#F15A60;stroke-width:1.25" />
<path d="M459.54,427.33L459.54,432.65" style="fill:none;stroke:#F15A60;stroke-width:1.25" />
<path d="M456.41,427.33L462.66,427.33" style="fill:none;stroke:#F15A60;stroke-width:1.25" />
<path d="M456.41,432.65L462.66,432.65" style="fill:none;stroke:#F15A60;stroke-width:1.25" />
<path d="M485.32,452.03L485.32,457.25" style="fill:none;stroke:#F15A60;stroke-width:1.25" />
<path d="M482.19,452.03L488.44,452.03" style="fill:none;stroke:#F15A60;stroke-width:1.25" />
<path d="M482.19,457.25L488.44,457.25" style="fill:none;stroke:#F15A60;stroke-width:1.25" />
<path d="M511.1,477.42L511.1,482.44" style="fill:none;stroke:#F15A60;stroke-width:1.25" />
<path d="M507.97,477.42L514.22,477.42" style="fill:none;stroke:#F15A60;stroke-width:1.25" />
<path d="M507.97,482.44L514.22,482.44" style="fill:none;stroke:#F15A60;stroke-width:1.25" />
<path d="M536.88,502.99L536.88,503.23" style="fill:none;stroke:#F15A60;stroke-width:1.25" />
<path d="M533.75,502.99L540,502.99" style="fill:none;stroke:#F15A60;stroke-width:1.25" />
<path d="M533.75,503.23L540,503.23" style="fill:none;stroke:#F15A60;stroke-width:1.25" />
<path d="M515,53.117L540,53.117" style="fill:none;stroke:#00007F;stroke-width:1.25" />
<text x="382.37" y="-47.328" transform="scale(1, -1)"
	style="font-family:Times;font-weight:normal;font-style:normal;font-size:12pt">C(n log n), C = 0.12  </text>
</g>
</svg>
