<?xml version="1.0" encoding="UTF-8" standalone="no"?>
<!DOCTYPE svg PUBLIC "-//W3C//DTD SVG 1.1//EN"
 "http://www.w3.org/Graphics/SVG/1.1/DTD/svg11.dtd">
<!-- Generated by graphviz version 2.38.0 (20140413.2041)
 -->
<!-- Title: %3 Pages: 1 -->
<svg width="422pt" height="116pt"
 viewBox="0.00 0.00 422.00 116.00" xmlns="http://www.w3.org/2000/svg" xmlns:xlink="http://www.w3.org/1999/xlink">
<g id="graph0" class="graph" transform="scale(1 1) rotate(0) translate(4 112)">
<title>%3</title>
<polygon fill="white" stroke="none" points="-4,4 -4,-112 418,-112 418,4 -4,4"/>
<!-- 1 -->
<g id="node1" class="node"><title>1</title>
<ellipse fill="none" stroke="black" cx="117" cy="-54" rx="27" ry="18"/>
<text text-anchor="middle" x="117" y="-50.3" font-family="Times,serif" font-size="14.00">1</text>
</g>
<!-- 4 -->
<g id="node2" class="node"><title>4</title>
<ellipse fill="none" stroke="black" cx="207" cy="-54" rx="27" ry="18"/>
<text text-anchor="middle" x="207" y="-50.3" font-family="Times,serif" font-size="14.00">4</text>
</g>
<!-- 1&#45;&gt;4 -->
<g id="edge1" class="edge"><title>1&#45;&gt;4</title>
<path fill="none" stroke="black" d="M144.403,-54C152.393,-54 161.311,-54 169.824,-54"/>
<polygon fill="black" stroke="black" points="169.919,-57.5001 179.919,-54 169.919,-50.5001 169.919,-57.5001"/>
</g>
<!-- 3 -->
<g id="node4" class="node"><title>3</title>
<ellipse fill="none" stroke="black" cx="297" cy="-90" rx="27" ry="18"/>
<text text-anchor="middle" x="297" y="-86.3" font-family="Times,serif" font-size="14.00">3</text>
</g>
<!-- 4&#45;&gt;3 -->
<g id="edge4" class="edge"><title>4&#45;&gt;3</title>
<path fill="none" stroke="black" d="M230.662,-63.2709C240.824,-67.4281 252.99,-72.4049 264.054,-76.931"/>
<polygon fill="black" stroke="black" points="262.834,-80.2135 273.415,-80.7605 265.484,-73.7347 262.834,-80.2135"/>
</g>
<!-- 6 -->
<g id="node6" class="node"><title>6</title>
<ellipse fill="none" stroke="black" cx="297" cy="-18" rx="27" ry="18"/>
<text text-anchor="middle" x="297" y="-14.3" font-family="Times,serif" font-size="14.00">6</text>
</g>
<!-- 4&#45;&gt;6 -->
<g id="edge5" class="edge"><title>4&#45;&gt;6</title>
<path fill="none" stroke="black" d="M230.662,-44.7291C240.824,-40.5719 252.99,-35.5951 264.054,-31.069"/>
<polygon fill="black" stroke="black" points="265.484,-34.2653 273.415,-27.2395 262.834,-27.7865 265.484,-34.2653"/>
</g>
<!-- 2 -->
<g id="node3" class="node"><title>2</title>
<ellipse fill="none" stroke="black" cx="27" cy="-54" rx="27" ry="18"/>
<text text-anchor="middle" x="27" y="-50.3" font-family="Times,serif" font-size="14.00">2</text>
</g>
<!-- 2&#45;&gt;1 -->
<g id="edge2" class="edge"><title>2&#45;&gt;1</title>
<path fill="none" stroke="black" d="M54.4029,-54C62.3932,-54 71.3106,-54 79.8241,-54"/>
<polygon fill="black" stroke="black" points="79.919,-57.5001 89.919,-54 79.919,-50.5001 79.919,-57.5001"/>
</g>
<!-- 5 -->
<g id="node5" class="node"><title>5</title>
<ellipse fill="none" stroke="black" cx="387" cy="-54" rx="27" ry="18"/>
<text text-anchor="middle" x="387" y="-50.3" font-family="Times,serif" font-size="14.00">5</text>
</g>
<!-- 3&#45;&gt;5 -->
<g id="edge3" class="edge"><title>3&#45;&gt;5</title>
<path fill="none" stroke="black" d="M320.662,-80.7291C330.824,-76.5719 342.99,-71.5951 354.054,-67.069"/>
<polygon fill="black" stroke="black" points="355.484,-70.2653 363.415,-63.2395 352.834,-63.7865 355.484,-70.2653"/>
</g>
<!-- 6&#45;&gt;5 -->
<g id="edge6" class="edge"><title>6&#45;&gt;5</title>
<path fill="none" stroke="black" d="M320.662,-27.2709C330.824,-31.4281 342.99,-36.4049 354.054,-40.931"/>
<polygon fill="black" stroke="black" points="352.834,-44.2135 363.415,-44.7605 355.484,-37.7347 352.834,-44.2135"/>
</g>
<!-- 6&#45;&gt;6 -->
<g id="edge7" class="edge"><title>6&#45;&gt;6</title>
<path fill="none" stroke="black" d="M281.773,-33.1666C277.159,-43.6641 282.234,-54 297,-54 306.921,-54 312.467,-49.3342 313.639,-43.0884"/>
<polygon fill="black" stroke="black" points="317.101,-42.5736 312.227,-33.1666 310.171,-43.5601 317.101,-42.5736"/>
</g>
</g>
</svg>
