<?xml version="1.0" encoding="UTF-8" standalone="no"?>
<!DOCTYPE svg PUBLIC "-//W3C//DTD SVG 1.0//EN" "http://www.w3.org/TR/2001/PR-SVG-20010719/DTD/svg10.dtd">
<svg width="8cm" height="8cm" viewBox="80 107 145 142" xmlns="http://www.w3.org/2000/svg" xmlns:xlink="http://www.w3.org/1999/xlink">
  <g>
    <rect style="fill: #ffffff" x="92" y="108" width="20" height="20"/>
    <rect style="fill: none; fill-opacity:0; stroke-width: 1.2; stroke: #000000" x="92" y="108" width="20" height="20"/>
  </g>
  <text font-size="9.03111" style="fill: #000000;text-anchor:start;font-family:sans-serif;font-style:normal;font-weight:normal" x="80" y="120">
    <tspan x="80" y="120">0</tspan>
  </text>
  <g>
    <rect style="fill: #ffffff" x="92" y="128" width="20" height="20"/>
    <rect style="fill: none; fill-opacity:0; stroke-width: 1.2; stroke: #000000" x="92" y="128" width="20" height="20"/>
  </g>
  <text font-size="9.03111" style="fill: #000000;text-anchor:start;font-family:sans-serif;font-style:normal;font-weight:normal" x="80" y="140">
    <tspan x="80" y="140">1</tspan>
  </text>
  <g>
    <rect style="fill: #ffffff" x="92" y="148" width="20" height="20"/>
    <rect style="fill: none; fill-opacity:0; stroke-width: 1.2; stroke: #000000" x="92" y="148" width="20" height="20"/>
  </g>
  <text font-size="9.03111" style="fill: #000000;text-anchor:start;font-family:sans-serif;font-style:normal;font-weight:normal" x="80" y="160">
    <tspan x="80" y="160">2</tspan>
  </text>
  <g>
    <rect style="fill: #ffffff" x="92" y="168" width="20" height="20"/>
    <rect style="fill: none; fill-opacity:0; stroke-width: 1.2; stroke: #000000" x="92" y="168" width="20" height="20"/>
  </g>
  <text font-size="9.03111" style="fill: #000000;text-anchor:start;font-family:sans-serif;font-style:normal;font-weight:normal" x="80" y="180">
    <tspan x="80" y="180">3</tspan>
  </text>
  <g>
    <rect style="fill: #ffffff" x="92" y="188" width="20" height="20"/>
    <rect style="fill: none; fill-opacity:0; stroke-width: 1.2; stroke: #000000" x="92" y="188" width="20" height="20"/>
  </g>
  <text font-size="9.03111" style="fill: #000000;text-anchor:start;font-family:sans-serif;font-style:normal;font-weight:normal" x="80" y="200">
    <tspan x="80" y="200">4</tspan>
  </text>
  <g>
    <rect style="fill: #ffffff" x="92" y="208" width="20" height="20"/>
    <rect style="fill: none; fill-opacity:0; stroke-width: 1.2; stroke: #000000" x="92" y="208" width="20" height="20"/>
  </g>
  <text font-size="9.03111" style="fill: #000000;text-anchor:start;font-family:sans-serif;font-style:normal;font-weight:normal" x="80" y="220">
    <tspan x="80" y="220">5</tspan>
  </text>
  <g>
    <rect style="fill: #ffffff" x="92" y="228" width="20" height="20"/>
    <rect style="fill: none; fill-opacity:0; stroke-width: 1.2; stroke: #000000" x="92" y="228" width="20" height="20"/>
  </g>
  <text font-size="9.03111" style="fill: #000000;text-anchor:start;font-family:sans-serif;font-style:normal;font-weight:normal" x="80" y="240">
    <tspan x="80" y="240">6</tspan>
  </text>
  <text font-size="9.03111" style="fill: #000000;text-anchor:start;font-family:sans-serif;font-style:normal;font-weight:normal" x="96" y="120">
    <tspan x="96" y="120">nil</tspan>
  </text>
  <g>
    <rect style="fill: #ffffff" x="140" y="128" width="20" height="20"/>
    <rect style="fill: none; fill-opacity:0; stroke-width: 1.2; stroke: #000000" x="140" y="128" width="20" height="20"/>
  </g>
  <g>
    <rect style="fill: #ffffff" x="172" y="148" width="20" height="20"/>
    <rect style="fill: none; fill-opacity:0; stroke-width: 1.2; stroke: #000000" x="172" y="148" width="20" height="20"/>
  </g>
  <text font-size="12.8" style="fill: #000000;text-anchor:start;font-family:sans-serif;font-style:normal;font-weight:normal" x="84" y="136">
    <tspan x="84" y="136"></tspan>
  </text>
  <g>
    <rect style="fill: #ffffff" x="204" y="168" width="20" height="20"/>
    <rect style="fill: none; fill-opacity:0; stroke-width: 1.2; stroke: #000000" x="204" y="168" width="20" height="20"/>
  </g>
  <g>
    <rect style="fill: #ffffff" x="140" y="188" width="20" height="20"/>
    <rect style="fill: none; fill-opacity:0; stroke-width: 1.2; stroke: #000000" x="140" y="188" width="20" height="20"/>
  </g>
  <g>
    <rect style="fill: #ffffff" x="160" y="188" width="20" height="20"/>
    <rect style="fill: none; fill-opacity:0; stroke-width: 1.2; stroke: #000000" x="160" y="188" width="20" height="20"/>
  </g>
  <g>
    <rect style="fill: #ffffff" x="140" y="228" width="20" height="20"/>
    <rect style="fill: none; fill-opacity:0; stroke-width: 1.2; stroke: #000000" x="140" y="228" width="20" height="20"/>
  </g>
  <g>
    <rect style="fill: #ffffff" x="160" y="228" width="20" height="20"/>
    <rect style="fill: none; fill-opacity:0; stroke-width: 1.2; stroke: #000000" x="160" y="228" width="20" height="20"/>
  </g>
  <text font-size="9.03111" style="fill: #000000;text-anchor:start;font-family:sans-serif;font-style:normal;font-weight:normal" x="148" y="140">
    <tspan x="148" y="140">4</tspan>
  </text>
  <text font-size="9.03111" style="fill: #000000;text-anchor:start;font-family:sans-serif;font-style:normal;font-weight:normal" x="180" y="160">
    <tspan x="180" y="160">1</tspan>
  </text>
  <text font-size="9.03111" style="fill: #000000;text-anchor:start;font-family:sans-serif;font-style:normal;font-weight:normal" x="212" y="180">
    <tspan x="212" y="180">5</tspan>
  </text>
  <text font-size="9.03111" style="fill: #000000;text-anchor:start;font-family:sans-serif;font-style:normal;font-weight:normal" x="148" y="240">
    <tspan x="148" y="240">5</tspan>
  </text>
  <text font-size="9.03111" style="fill: #000000;text-anchor:start;font-family:sans-serif;font-style:normal;font-weight:normal" x="148" y="200">
    <tspan x="148" y="200">3</tspan>
  </text>
  <text font-size="9.03111" style="fill: #000000;text-anchor:start;font-family:sans-serif;font-style:normal;font-weight:normal" x="168" y="200">
    <tspan x="168" y="200">6</tspan>
  </text>
  <text font-size="9.03111" style="fill: #000000;text-anchor:start;font-family:sans-serif;font-style:normal;font-weight:normal" x="168" y="240">
    <tspan x="168" y="240">6</tspan>
  </text>
  <g>
    <line style="fill: none; fill-opacity:0; stroke-width: 1.2; stroke: #000000" x1="112.576" y1="138" x2="135.658" y2="138"/>
    <polygon style="fill: #000000" points="138.658,138 134.658,140 135.658,138 134.658,136 "/>
    <polygon style="fill: none; fill-opacity:0; stroke-width: 1.2; stroke: #000000" points="138.658,138 134.658,140 135.658,138 134.658,136 "/>
  </g>
  <g>
    <line style="fill: none; fill-opacity:0; stroke-width: 1.2; stroke: #000000" x1="112.604" y1="158" x2="167.658" y2="158"/>
    <polygon style="fill: #000000" points="170.658,158 166.658,160 167.658,158 166.658,156 "/>
    <polygon style="fill: none; fill-opacity:0; stroke-width: 1.2; stroke: #000000" points="170.658,158 166.658,160 167.658,158 166.658,156 "/>
  </g>
  <g>
    <line style="fill: none; fill-opacity:0; stroke-width: 1.2; stroke: #000000" x1="112.555" y1="178" x2="199.104" y2="178"/>
    <polygon style="fill: #000000" points="202.104,178 198.104,180 199.104,178 198.104,176 "/>
    <polygon style="fill: none; fill-opacity:0; stroke-width: 1.2; stroke: #000000" points="202.104,178 198.104,180 199.104,178 198.104,176 "/>
  </g>
  <g>
    <line style="fill: none; fill-opacity:0; stroke-width: 1.2; stroke: #000000" x1="112.605" y1="198" x2="135.053" y2="198"/>
    <polygon style="fill: #000000" points="138.053,198 134.053,200 135.053,198 134.053,196 "/>
    <polygon style="fill: none; fill-opacity:0; stroke-width: 1.2; stroke: #000000" points="138.053,198 134.053,200 135.053,198 134.053,196 "/>
  </g>
  <g>
    <line style="fill: none; fill-opacity:0; stroke-width: 1.2; stroke: #000000" x1="112.576" y1="238" x2="135.658" y2="238"/>
    <polygon style="fill: #000000" points="138.658,238 134.658,240 135.658,238 134.658,236 "/>
    <polygon style="fill: none; fill-opacity:0; stroke-width: 1.2; stroke: #000000" points="138.658,238 134.658,240 135.658,238 134.658,236 "/>
  </g>
  <text font-size="9.03111" style="fill: #000000;text-anchor:start;font-family:sans-serif;font-style:normal;font-weight:normal" x="96" y="220">
    <tspan x="96" y="220">nil</tspan>
  </text>
</svg>
