<?xml version="1.0" encoding="UTF-8" standalone="no"?>
<!DOCTYPE svg PUBLIC "-//W3C//DTD SVG 1.1//EN"
 "http://www.w3.org/Graphics/SVG/1.1/DTD/svg11.dtd">
<!-- Generated by graphviz version 2.38.0 (20140413.2041)
 -->
<!-- Title: %3 Pages: 1 -->
<svg width="464pt" height="111pt"
 viewBox="0.00 0.00 464.00 111.00" xmlns="http://www.w3.org/2000/svg" xmlns:xlink="http://www.w3.org/1999/xlink">
<g id="graph0" class="graph" transform="scale(1 1) rotate(0) translate(4 107)">
<title>%3</title>
<polygon fill="white" stroke="none" points="-4,4 -4,-107 460,-107 460,4 -4,4"/>
<!-- 1 -->
<g id="node1" class="node"><title>1</title>
<ellipse fill="none" stroke="black" cx="27" cy="-34" rx="27" ry="18"/>
<text text-anchor="middle" x="27" y="-30.3" font-family="Times,serif" font-size="14.00">1</text>
</g>
<!-- 2 -->
<g id="node2" class="node"><title>2</title>
<ellipse fill="none" stroke="black" cx="124" cy="-85" rx="27" ry="18"/>
<text text-anchor="middle" x="124" y="-81.3" font-family="Times,serif" font-size="14.00">2</text>
</g>
<!-- 1&#45;&gt;2 -->
<g id="edge1" class="edge"><title>1&#45;&gt;2</title>
<path fill="none" stroke="black" d="M48.6136,-45.0662C61.685,-52.0835 78.8068,-61.2752 93.3282,-69.0709"/>
<polygon fill="black" stroke="black" points="91.9605,-72.3091 102.427,-73.9554 95.2715,-66.1416 91.9605,-72.3091"/>
<text text-anchor="middle" x="75.5" y="-64.8" font-family="Times,serif" font-size="14.00">7</text>
</g>
<!-- 3 -->
<g id="node3" class="node"><title>3</title>
<ellipse fill="none" stroke="black" cx="228" cy="-39" rx="27" ry="18"/>
<text text-anchor="middle" x="228" y="-35.3" font-family="Times,serif" font-size="14.00">3</text>
</g>
<!-- 1&#45;&gt;3 -->
<g id="edge2" class="edge"><title>1&#45;&gt;3</title>
<path fill="none" stroke="black" d="M54.0158,-34.6537C89.0254,-35.5333 151.459,-37.102 190.97,-38.0947"/>
<polygon fill="black" stroke="black" points="190.893,-41.5938 200.978,-38.3462 191.069,-34.596 190.893,-41.5938"/>
<text text-anchor="middle" x="124" y="-40.8" font-family="Times,serif" font-size="14.00">9</text>
</g>
<!-- 6 -->
<g id="node4" class="node"><title>6</title>
<ellipse fill="none" stroke="black" cx="332" cy="-18" rx="27" ry="18"/>
<text text-anchor="middle" x="332" y="-14.3" font-family="Times,serif" font-size="14.00">6</text>
</g>
<!-- 1&#45;&gt;6 -->
<g id="edge3" class="edge"><title>1&#45;&gt;6</title>
<path fill="none" stroke="black" d="M53.4057,-29.7457C87.046,-24.348 148.273,-15.3391 201,-12 224.952,-10.4831 231.019,-11.0548 255,-12 268.019,-12.5131 282.262,-13.5187 294.864,-14.5623"/>
<polygon fill="black" stroke="black" points="294.737,-18.0642 305.001,-15.4378 295.339,-11.0902 294.737,-18.0642"/>
<text text-anchor="middle" x="176" y="-17.8" font-family="Times,serif" font-size="14.00">11</text>
</g>
<!-- 2&#45;&gt;3 -->
<g id="edge4" class="edge"><title>2&#45;&gt;3</title>
<path fill="none" stroke="black" d="M146.882,-75.1318C161.133,-68.7045 179.948,-60.2196 195.763,-53.0874"/>
<polygon fill="black" stroke="black" points="197.478,-56.1535 205.155,-48.8518 194.6,-49.7724 197.478,-56.1535"/>
<text text-anchor="middle" x="176" y="-67.8" font-family="Times,serif" font-size="14.00">10</text>
</g>
<!-- 4 -->
<g id="node5" class="node"><title>4</title>
<ellipse fill="none" stroke="black" cx="332" cy="-72" rx="27" ry="18"/>
<text text-anchor="middle" x="332" y="-68.3" font-family="Times,serif" font-size="14.00">4</text>
</g>
<!-- 2&#45;&gt;4 -->
<g id="edge5" class="edge"><title>2&#45;&gt;4</title>
<path fill="none" stroke="black" d="M150.993,-84.2852C161.001,-83.9624 172.535,-83.5325 183,-83 229.267,-80.6459 240.817,-79.6529 287,-76 289.542,-75.7989 292.167,-75.5826 294.809,-75.3583"/>
<polygon fill="black" stroke="black" points="295.294,-78.8293 304.95,-74.47 294.683,-71.856 295.294,-78.8293"/>
<text text-anchor="middle" x="228" y="-85.8" font-family="Times,serif" font-size="14.00">15</text>
</g>
<!-- 3&#45;&gt;6 -->
<g id="edge7" class="edge"><title>3&#45;&gt;6</title>
<path fill="none" stroke="black" d="M253.593,-32.5094C259.897,-30.9399 266.682,-29.3324 273,-28 280.286,-26.4633 288.124,-24.9912 295.609,-23.6714"/>
<polygon fill="black" stroke="black" points="296.247,-27.1131 305.513,-21.9742 295.065,-20.2137 296.247,-27.1131"/>
<text text-anchor="middle" x="280" y="-31.8" font-family="Times,serif" font-size="14.00">2</text>
</g>
<!-- 3&#45;&gt;4 -->
<g id="edge6" class="edge"><title>3&#45;&gt;4</title>
<path fill="none" stroke="black" d="M252.657,-46.6538C266.046,-50.9854 283.004,-56.4719 297.716,-61.2317"/>
<polygon fill="black" stroke="black" points="296.879,-64.6395 307.471,-64.3877 299.034,-57.9794 296.879,-64.6395"/>
<text text-anchor="middle" x="280" y="-60.8" font-family="Times,serif" font-size="14.00">11</text>
</g>
<!-- 5 -->
<g id="node6" class="node"><title>5</title>
<ellipse fill="none" stroke="black" cx="429" cy="-47" rx="27" ry="18"/>
<text text-anchor="middle" x="429" y="-43.3" font-family="Times,serif" font-size="14.00">5</text>
</g>
<!-- 6&#45;&gt;5 -->
<g id="edge9" class="edge"><title>6&#45;&gt;5</title>
<path fill="none" stroke="black" d="M356.973,-25.3179C368.224,-28.7524 381.831,-32.9062 394.112,-36.6552"/>
<polygon fill="black" stroke="black" points="393.449,-40.1122 404.035,-39.6844 395.493,-33.4172 393.449,-40.1122"/>
<text text-anchor="middle" x="380.5" y="-36.8" font-family="Times,serif" font-size="14.00">9</text>
</g>
<!-- 4&#45;&gt;5 -->
<g id="edge8" class="edge"><title>4&#45;&gt;5</title>
<path fill="none" stroke="black" d="M357.465,-65.5619C368.546,-62.6458 381.834,-59.1489 393.874,-55.9805"/>
<polygon fill="black" stroke="black" points="394.838,-59.3461 403.618,-53.4163 393.057,-52.5765 394.838,-59.3461"/>
<text text-anchor="middle" x="380.5" y="-63.8" font-family="Times,serif" font-size="14.00">7</text>
</g>
</g>
</svg>
